ISO-10303-21;
HEADER;
FILE_DESCRIPTION(('FreeCAD Model'),'2;1');
FILE_NAME('Open CASCADE Shape Model','2026-10-07T21:34:39',('Author'),(
    ''),'Open CASCADE STEP processor 7.8','FreeCAD','Unknown');
FILE_SCHEMA(('AUTOMOTIVE_DESIGN { 1 0 10303 214 1 1 1 1 }'));
ENDSEC;
DATA;
#1 = APPLICATION_PROTOCOL_DEFINITION('international standard',
  'automotive_design',2000,#2);
#2 = APPLICATION_CONTEXT(
  'core data for automotive mechanical design processes');
#3 = SHAPE_DEFINITION_REPRESENTATION(#4,#10);
#4 = PRODUCT_DEFINITION_SHAPE('','',#5);
#5 = PRODUCT_DEFINITION('design','',#6,#9);
#6 = PRODUCT_DEFINITION_FORMATION('','',#7);
#7 = PRODUCT('rc_box','rc_box','',(#8));
#8 = PRODUCT_CONTEXT('',#2,'mechanical');
#9 = PRODUCT_DEFINITION_CONTEXT('part definition',#2,'design');
#10 = SHAPE_REPRESENTATION('',(#11,#15,#19),#23);
#11 = AXIS2_PLACEMENT_3D('',#12,#13,#14);
#12 = CARTESIAN_POINT('',(0.,0.,0.));
#13 = DIRECTION('',(0.,0.,1.));
#14 = DIRECTION('',(1.,0.,-0.));
#15 = AXIS2_PLACEMENT_3D('',#16,#17,#18);
#16 = CARTESIAN_POINT('',(-66.,-7.105427357601E-15,-30.));
#17 = DIRECTION('',(0.,-1.,2.22044604925E-16));
#18 = DIRECTION('',(1.,0.,0.));
#19 = AXIS2_PLACEMENT_3D('',#20,#21,#22);
#20 = CARTESIAN_POINT('',(0.,0.,0.));
#21 = DIRECTION('',(0.,-1.,2.22044604925E-16));
#22 = DIRECTION('',(1.,0.,0.));
#23 = ( GEOMETRIC_REPRESENTATION_CONTEXT(3) 
GLOBAL_UNCERTAINTY_ASSIGNED_CONTEXT((#27)) GLOBAL_UNIT_ASSIGNED_CONTEXT(
(#24,#25,#26)) REPRESENTATION_CONTEXT('Context #1',
  '3D Context with UNIT and UNCERTAINTY') );
#24 = ( LENGTH_UNIT() NAMED_UNIT(*) SI_UNIT(.MILLI.,.METRE.) );
#25 = ( NAMED_UNIT(*) PLANE_ANGLE_UNIT() SI_UNIT($,.RADIAN.) );
#26 = ( NAMED_UNIT(*) SI_UNIT($,.STERADIAN.) SOLID_ANGLE_UNIT() );
#27 = UNCERTAINTY_MEASURE_WITH_UNIT(LENGTH_MEASURE(1.E-05),#24,
  'distance_accuracy_value','confusion accuracy');
#28 = PRODUCT_RELATED_PRODUCT_CATEGORY('part',$,(#7));
#29 = SHAPE_DEFINITION_REPRESENTATION(#30,#36);
#30 = PRODUCT_DEFINITION_SHAPE('','',#31);
#31 = PRODUCT_DEFINITION('design','',#32,#35);
#32 = PRODUCT_DEFINITION_FORMATION('','',#33);
#33 = PRODUCT('Body001','Body001','',(#34));
#34 = PRODUCT_CONTEXT('',#2,'mechanical');
#35 = PRODUCT_DEFINITION_CONTEXT('part definition',#2,'design');
#36 = ADVANCED_BREP_SHAPE_REPRESENTATION('',(#11,#37),#485);
#37 = MANIFOLD_SOLID_BREP('',#38);
#38 = CLOSED_SHELL('',(#39,#79,#110,#141,#236,#297,#309,#326,#343,#360,
    #391,#415,#439,#456,#473));
#39 = ADVANCED_FACE('',(#40),#74,.F.);
#40 = FACE_BOUND('',#41,.F.);
#41 = EDGE_LOOP('',(#42,#52,#60,#68));
#42 = ORIENTED_EDGE('',*,*,#43,.T.);
#43 = EDGE_CURVE('',#44,#46,#48,.T.);
#44 = VERTEX_POINT('',#45);
#45 = CARTESIAN_POINT('',(0.,0.,0.));
#46 = VERTEX_POINT('',#47);
#47 = CARTESIAN_POINT('',(0.,-10.,2.22044604925E-15));
#48 = LINE('',#49,#50);
#49 = CARTESIAN_POINT('',(0.,0.,0.));
#50 = VECTOR('',#51,1.);
#51 = DIRECTION('',(0.,-1.,2.22044604925E-16));
#52 = ORIENTED_EDGE('',*,*,#53,.T.);
#53 = EDGE_CURVE('',#46,#54,#56,.T.);
#54 = VERTEX_POINT('',#55);
#55 = CARTESIAN_POINT('',(60.,-10.,2.22044604925E-15));
#56 = LINE('',#57,#58);
#57 = CARTESIAN_POINT('',(0.,-10.,2.22044604925E-15));
#58 = VECTOR('',#59,1.);
#59 = DIRECTION('',(1.,0.,0.));
#60 = ORIENTED_EDGE('',*,*,#61,.F.);
#61 = EDGE_CURVE('',#62,#54,#64,.T.);
#62 = VERTEX_POINT('',#63);
#63 = CARTESIAN_POINT('',(60.,0.,0.));
#64 = LINE('',#65,#66);
#65 = CARTESIAN_POINT('',(60.,0.,0.));
#66 = VECTOR('',#67,1.);
#67 = DIRECTION('',(0.,-1.,2.22044604925E-16));
#68 = ORIENTED_EDGE('',*,*,#69,.F.);
#69 = EDGE_CURVE('',#44,#62,#70,.T.);
#70 = LINE('',#71,#72);
#71 = CARTESIAN_POINT('',(0.,0.,0.));
#72 = VECTOR('',#73,1.);
#73 = DIRECTION('',(1.,0.,0.));
#74 = PLANE('',#75);
#75 = AXIS2_PLACEMENT_3D('',#76,#77,#78);
#76 = CARTESIAN_POINT('',(0.,0.,0.));
#77 = DIRECTION('',(0.,2.22044604925E-16,1.));
#78 = DIRECTION('',(1.,0.,0.));
#79 = ADVANCED_FACE('',(#80),#105,.F.);
#80 = FACE_BOUND('',#81,.F.);
#81 = EDGE_LOOP('',(#82,#92,#98,#99));
#82 = ORIENTED_EDGE('',*,*,#83,.T.);
#83 = EDGE_CURVE('',#84,#86,#88,.T.);
#84 = VERTEX_POINT('',#85);
#85 = CARTESIAN_POINT('',(0.,1.998401444325E-14,90.));
#86 = VERTEX_POINT('',#87);
#87 = CARTESIAN_POINT('',(0.,-10.,90.));
#88 = LINE('',#89,#90);
#89 = CARTESIAN_POINT('',(0.,1.998401444325E-14,90.));
#90 = VECTOR('',#91,1.);
#91 = DIRECTION('',(0.,-1.,2.22044604925E-16));
#92 = ORIENTED_EDGE('',*,*,#93,.T.);
#93 = EDGE_CURVE('',#86,#46,#94,.T.);
#94 = LINE('',#95,#96);
#95 = CARTESIAN_POINT('',(0.,-10.,90.));
#96 = VECTOR('',#97,1.);
#97 = DIRECTION('',(0.,-2.22044604925E-16,-1.));
#98 = ORIENTED_EDGE('',*,*,#43,.F.);
#99 = ORIENTED_EDGE('',*,*,#100,.F.);
#100 = EDGE_CURVE('',#84,#44,#101,.T.);
#101 = LINE('',#102,#103);
#102 = CARTESIAN_POINT('',(0.,1.998401444325E-14,90.));
#103 = VECTOR('',#104,1.);
#104 = DIRECTION('',(0.,-2.22044604925E-16,-1.));
#105 = PLANE('',#106);
#106 = AXIS2_PLACEMENT_3D('',#107,#108,#109);
#107 = CARTESIAN_POINT('',(0.,1.998401444325E-14,90.));
#108 = DIRECTION('',(1.,0.,0.));
#109 = DIRECTION('',(0.,-2.22044604925E-16,-1.));
#110 = ADVANCED_FACE('',(#111),#136,.F.);
#111 = FACE_BOUND('',#112,.F.);
#112 = EDGE_LOOP('',(#113,#114,#122,#130));
#113 = ORIENTED_EDGE('',*,*,#61,.T.);
#114 = ORIENTED_EDGE('',*,*,#115,.T.);
#115 = EDGE_CURVE('',#54,#116,#118,.T.);
#116 = VERTEX_POINT('',#117);
#117 = CARTESIAN_POINT('',(60.,-10.,90.));
#118 = LINE('',#119,#120);
#119 = CARTESIAN_POINT('',(60.,-10.,2.22044604925E-15));
#120 = VECTOR('',#121,1.);
#121 = DIRECTION('',(0.,2.22044604925E-16,1.));
#122 = ORIENTED_EDGE('',*,*,#123,.F.);
#123 = EDGE_CURVE('',#124,#116,#126,.T.);
#124 = VERTEX_POINT('',#125);
#125 = CARTESIAN_POINT('',(60.,1.998401444325E-14,90.));
#126 = LINE('',#127,#128);
#127 = CARTESIAN_POINT('',(60.,1.998401444325E-14,90.));
#128 = VECTOR('',#129,1.);
#129 = DIRECTION('',(0.,-1.,2.22044604925E-16));
#130 = ORIENTED_EDGE('',*,*,#131,.F.);
#131 = EDGE_CURVE('',#62,#124,#132,.T.);
#132 = LINE('',#133,#134);
#133 = CARTESIAN_POINT('',(60.,0.,0.));
#134 = VECTOR('',#135,1.);
#135 = DIRECTION('',(0.,2.22044604925E-16,1.));
#136 = PLANE('',#137);
#137 = AXIS2_PLACEMENT_3D('',#138,#139,#140);
#138 = CARTESIAN_POINT('',(60.,0.,0.));
#139 = DIRECTION('',(-1.,0.,0.));
#140 = DIRECTION('',(0.,2.22044604925E-16,1.));
#141 = ADVANCED_FACE('',(#142,#153,#164,#175,#186,#220),#231,.T.);
#142 = FACE_BOUND('',#143,.T.);
#143 = EDGE_LOOP('',(#144,#145,#146,#152));
#144 = ORIENTED_EDGE('',*,*,#69,.F.);
#145 = ORIENTED_EDGE('',*,*,#100,.F.);
#146 = ORIENTED_EDGE('',*,*,#147,.F.);
#147 = EDGE_CURVE('',#124,#84,#148,.T.);
#148 = LINE('',#149,#150);
#149 = CARTESIAN_POINT('',(60.,1.998401444325E-14,90.));
#150 = VECTOR('',#151,1.);
#151 = DIRECTION('',(-1.,0.,0.));
#152 = ORIENTED_EDGE('',*,*,#131,.F.);
#153 = FACE_BOUND('',#154,.T.);
#154 = EDGE_LOOP('',(#155));
#155 = ORIENTED_EDGE('',*,*,#156,.T.);
#156 = EDGE_CURVE('',#157,#157,#159,.T.);
#157 = VERTEX_POINT('',#158);
#158 = CARTESIAN_POINT('',(4.3,7.771561172376E-16,3.5));
#159 = CIRCLE('',#160,0.8);
#160 = AXIS2_PLACEMENT_3D('',#161,#162,#163);
#161 = CARTESIAN_POINT('',(3.5,7.771561172376E-16,3.5));
#162 = DIRECTION('',(0.,-1.,2.22044604925E-16));
#163 = DIRECTION('',(1.,0.,0.));
#164 = FACE_BOUND('',#165,.T.);
#165 = EDGE_LOOP('',(#166));
#166 = ORIENTED_EDGE('',*,*,#167,.T.);
#167 = EDGE_CURVE('',#168,#168,#170,.T.);
#168 = VERTEX_POINT('',#169);
#169 = CARTESIAN_POINT('',(4.3,1.909583602355E-14,86.));
#170 = CIRCLE('',#171,0.8);
#171 = AXIS2_PLACEMENT_3D('',#172,#173,#174);
#172 = CARTESIAN_POINT('',(3.5,1.909583602355E-14,86.));
#173 = DIRECTION('',(0.,-1.,2.22044604925E-16));
#174 = DIRECTION('',(1.,0.,0.));
#175 = FACE_BOUND('',#176,.T.);
#176 = EDGE_LOOP('',(#177));
#177 = ORIENTED_EDGE('',*,*,#178,.T.);
#178 = EDGE_CURVE('',#179,#179,#181,.T.);
#179 = VERTEX_POINT('',#180);
#180 = CARTESIAN_POINT('',(56.8,7.771561172376E-16,3.5));
#181 = CIRCLE('',#182,0.8);
#182 = AXIS2_PLACEMENT_3D('',#183,#184,#185);
#183 = CARTESIAN_POINT('',(56.,7.771561172376E-16,3.5));
#184 = DIRECTION('',(0.,-1.,2.22044604925E-16));
#185 = DIRECTION('',(1.,0.,0.));
#186 = FACE_BOUND('',#187,.T.);
#187 = EDGE_LOOP('',(#188,#198,#206,#214));
#188 = ORIENTED_EDGE('',*,*,#189,.F.);
#189 = EDGE_CURVE('',#190,#192,#194,.T.);
#190 = VERTEX_POINT('',#191);
#191 = CARTESIAN_POINT('',(52.5,1.165442659313E-14,7.5));
#192 = VERTEX_POINT('',#193);
#193 = CARTESIAN_POINT('',(7.5,1.165442659313E-14,7.5));
#194 = LINE('',#195,#196);
#195 = CARTESIAN_POINT('',(52.5,1.165442659313E-14,7.5));
#196 = VECTOR('',#197,1.);
#197 = DIRECTION('',(-1.,0.,0.));
#198 = ORIENTED_EDGE('',*,*,#199,.F.);
#199 = EDGE_CURVE('',#200,#190,#202,.T.);
#200 = VERTEX_POINT('',#201);
#201 = CARTESIAN_POINT('',(52.5,2.830777196251E-14,82.5));
#202 = LINE('',#203,#204);
#203 = CARTESIAN_POINT('',(52.5,2.830777196251E-14,82.5));
#204 = VECTOR('',#205,1.);
#205 = DIRECTION('',(0.,-2.22044604925E-16,-1.));
#206 = ORIENTED_EDGE('',*,*,#207,.F.);
#207 = EDGE_CURVE('',#208,#200,#210,.T.);
#208 = VERTEX_POINT('',#209);
#209 = CARTESIAN_POINT('',(7.5,2.830777196251E-14,82.5));
#210 = LINE('',#211,#212);
#211 = CARTESIAN_POINT('',(7.5,2.830777196251E-14,82.5));
#212 = VECTOR('',#213,1.);
#213 = DIRECTION('',(1.,0.,0.));
#214 = ORIENTED_EDGE('',*,*,#215,.F.);
#215 = EDGE_CURVE('',#192,#208,#216,.T.);
#216 = LINE('',#217,#218);
#217 = CARTESIAN_POINT('',(7.5,1.165442659313E-14,7.5));
#218 = VECTOR('',#219,1.);
#219 = DIRECTION('',(0.,2.22044604925E-16,1.));
#220 = FACE_BOUND('',#221,.T.);
#221 = EDGE_LOOP('',(#222));
#222 = ORIENTED_EDGE('',*,*,#223,.T.);
#223 = EDGE_CURVE('',#224,#224,#226,.T.);
#224 = VERTEX_POINT('',#225);
#225 = CARTESIAN_POINT('',(56.8,1.909583602355E-14,86.));
#226 = CIRCLE('',#227,0.8);
#227 = AXIS2_PLACEMENT_3D('',#228,#229,#230);
#228 = CARTESIAN_POINT('',(56.,1.909583602355E-14,86.));
#229 = DIRECTION('',(0.,-1.,2.22044604925E-16));
#230 = DIRECTION('',(1.,0.,0.));
#231 = PLANE('',#232);
#232 = AXIS2_PLACEMENT_3D('',#233,#234,#235);
#233 = CARTESIAN_POINT('',(30.,9.992007221626E-15,45.));
#234 = DIRECTION('',(0.,1.,0.));
#235 = DIRECTION('',(0.,0.,1.));
#236 = ADVANCED_FACE('',(#237,#248,#259,#270,#281),#292,.F.);
#237 = FACE_BOUND('',#238,.T.);
#238 = EDGE_LOOP('',(#239,#240,#241,#247));
#239 = ORIENTED_EDGE('',*,*,#53,.T.);
#240 = ORIENTED_EDGE('',*,*,#115,.T.);
#241 = ORIENTED_EDGE('',*,*,#242,.T.);
#242 = EDGE_CURVE('',#116,#86,#243,.T.);
#243 = LINE('',#244,#245);
#244 = CARTESIAN_POINT('',(60.,-10.,90.));
#245 = VECTOR('',#246,1.);
#246 = DIRECTION('',(-1.,0.,0.));
#247 = ORIENTED_EDGE('',*,*,#93,.T.);
#248 = FACE_BOUND('',#249,.F.);
#249 = EDGE_LOOP('',(#250));
#250 = ORIENTED_EDGE('',*,*,#251,.T.);
#251 = EDGE_CURVE('',#252,#252,#254,.T.);
#252 = VERTEX_POINT('',#253);
#253 = CARTESIAN_POINT('',(56.8,-10.,3.5));
#254 = CIRCLE('',#255,0.8);
#255 = AXIS2_PLACEMENT_3D('',#256,#257,#258);
#256 = CARTESIAN_POINT('',(56.,-10.,3.5));
#257 = DIRECTION('',(0.,-1.,2.22044604925E-16));
#258 = DIRECTION('',(1.,0.,0.));
#259 = FACE_BOUND('',#260,.F.);
#260 = EDGE_LOOP('',(#261));
#261 = ORIENTED_EDGE('',*,*,#262,.T.);
#262 = EDGE_CURVE('',#263,#263,#265,.T.);
#263 = VERTEX_POINT('',#264);
#264 = CARTESIAN_POINT('',(56.8,-10.,86.));
#265 = CIRCLE('',#266,0.8);
#266 = AXIS2_PLACEMENT_3D('',#267,#268,#269);
#267 = CARTESIAN_POINT('',(56.,-10.,86.));
#268 = DIRECTION('',(0.,-1.,2.22044604925E-16));
#269 = DIRECTION('',(1.,0.,0.));
#270 = FACE_BOUND('',#271,.F.);
#271 = EDGE_LOOP('',(#272));
#272 = ORIENTED_EDGE('',*,*,#273,.T.);
#273 = EDGE_CURVE('',#274,#274,#276,.T.);
#274 = VERTEX_POINT('',#275);
#275 = CARTESIAN_POINT('',(4.3,-10.,86.));
#276 = CIRCLE('',#277,0.8);
#277 = AXIS2_PLACEMENT_3D('',#278,#279,#280);
#278 = CARTESIAN_POINT('',(3.5,-10.,86.));
#279 = DIRECTION('',(0.,-1.,2.22044604925E-16));
#280 = DIRECTION('',(1.,0.,0.));
#281 = FACE_BOUND('',#282,.F.);
#282 = EDGE_LOOP('',(#283));
#283 = ORIENTED_EDGE('',*,*,#284,.T.);
#284 = EDGE_CURVE('',#285,#285,#287,.T.);
#285 = VERTEX_POINT('',#286);
#286 = CARTESIAN_POINT('',(4.3,-10.,3.5));
#287 = CIRCLE('',#288,0.8);
#288 = AXIS2_PLACEMENT_3D('',#289,#290,#291);
#289 = CARTESIAN_POINT('',(3.5,-10.,3.5));
#290 = DIRECTION('',(0.,-1.,2.22044604925E-16));
#291 = DIRECTION('',(1.,0.,0.));
#292 = PLANE('',#293);
#293 = AXIS2_PLACEMENT_3D('',#294,#295,#296);
#294 = CARTESIAN_POINT('',(29.986871262056,-10.,44.986871262057));
#295 = DIRECTION('',(0.,1.,0.));
#296 = DIRECTION('',(0.,0.,1.));
#297 = ADVANCED_FACE('',(#298),#304,.F.);
#298 = FACE_BOUND('',#299,.F.);
#299 = EDGE_LOOP('',(#300,#301,#302,#303));
#300 = ORIENTED_EDGE('',*,*,#123,.T.);
#301 = ORIENTED_EDGE('',*,*,#242,.T.);
#302 = ORIENTED_EDGE('',*,*,#83,.F.);
#303 = ORIENTED_EDGE('',*,*,#147,.F.);
#304 = PLANE('',#305);
#305 = AXIS2_PLACEMENT_3D('',#306,#307,#308);
#306 = CARTESIAN_POINT('',(60.,1.998401444325E-14,90.));
#307 = DIRECTION('',(-0.,-2.22044604925E-16,-1.));
#308 = DIRECTION('',(-1.,0.,0.));
#309 = ADVANCED_FACE('',(#310),#321,.F.);
#310 = FACE_BOUND('',#311,.T.);
#311 = EDGE_LOOP('',(#312,#318,#319,#320));
#312 = ORIENTED_EDGE('',*,*,#313,.T.);
#313 = EDGE_CURVE('',#157,#285,#314,.T.);
#314 = LINE('',#315,#316);
#315 = CARTESIAN_POINT('',(4.3,7.771561172376E-16,3.5));
#316 = VECTOR('',#317,1.);
#317 = DIRECTION('',(0.,-1.,2.22044604925E-16));
#318 = ORIENTED_EDGE('',*,*,#284,.T.);
#319 = ORIENTED_EDGE('',*,*,#313,.F.);
#320 = ORIENTED_EDGE('',*,*,#156,.F.);
#321 = CYLINDRICAL_SURFACE('',#322,0.8);
#322 = AXIS2_PLACEMENT_3D('',#323,#324,#325);
#323 = CARTESIAN_POINT('',(3.5,7.771561172376E-16,3.5));
#324 = DIRECTION('',(0.,1.,-2.22044604925E-16));
#325 = DIRECTION('',(1.,0.,0.));
#326 = ADVANCED_FACE('',(#327),#338,.F.);
#327 = FACE_BOUND('',#328,.T.);
#328 = EDGE_LOOP('',(#329,#335,#336,#337));
#329 = ORIENTED_EDGE('',*,*,#330,.T.);
#330 = EDGE_CURVE('',#168,#274,#331,.T.);
#331 = LINE('',#332,#333);
#332 = CARTESIAN_POINT('',(4.3,1.909583602355E-14,86.));
#333 = VECTOR('',#334,1.);
#334 = DIRECTION('',(0.,-1.,2.22044604925E-16));
#335 = ORIENTED_EDGE('',*,*,#273,.T.);
#336 = ORIENTED_EDGE('',*,*,#330,.F.);
#337 = ORIENTED_EDGE('',*,*,#167,.F.);
#338 = CYLINDRICAL_SURFACE('',#339,0.8);
#339 = AXIS2_PLACEMENT_3D('',#340,#341,#342);
#340 = CARTESIAN_POINT('',(3.5,1.909583602355E-14,86.));
#341 = DIRECTION('',(0.,1.,-2.22044604925E-16));
#342 = DIRECTION('',(1.,0.,0.));
#343 = ADVANCED_FACE('',(#344),#355,.F.);
#344 = FACE_BOUND('',#345,.T.);
#345 = EDGE_LOOP('',(#346,#352,#353,#354));
#346 = ORIENTED_EDGE('',*,*,#347,.T.);
#347 = EDGE_CURVE('',#179,#252,#348,.T.);
#348 = LINE('',#349,#350);
#349 = CARTESIAN_POINT('',(56.8,7.771561172376E-16,3.5));
#350 = VECTOR('',#351,1.);
#351 = DIRECTION('',(0.,-1.,2.22044604925E-16));
#352 = ORIENTED_EDGE('',*,*,#251,.T.);
#353 = ORIENTED_EDGE('',*,*,#347,.F.);
#354 = ORIENTED_EDGE('',*,*,#178,.F.);
#355 = CYLINDRICAL_SURFACE('',#356,0.8);
#356 = AXIS2_PLACEMENT_3D('',#357,#358,#359);
#357 = CARTESIAN_POINT('',(56.,7.771561172376E-16,3.5));
#358 = DIRECTION('',(0.,1.,-2.22044604925E-16));
#359 = DIRECTION('',(1.,0.,0.));
#360 = ADVANCED_FACE('',(#361),#386,.F.);
#361 = FACE_BOUND('',#362,.F.);
#362 = EDGE_LOOP('',(#363,#371,#379,#385));
#363 = ORIENTED_EDGE('',*,*,#364,.T.);
#364 = EDGE_CURVE('',#190,#365,#367,.T.);
#365 = VERTEX_POINT('',#366);
#366 = CARTESIAN_POINT('',(52.5,-7.,7.5));
#367 = LINE('',#368,#369);
#368 = CARTESIAN_POINT('',(52.5,1.165442659313E-14,7.5));
#369 = VECTOR('',#370,1.);
#370 = DIRECTION('',(0.,-1.,2.22044604925E-16));
#371 = ORIENTED_EDGE('',*,*,#372,.T.);
#372 = EDGE_CURVE('',#365,#373,#375,.T.);
#373 = VERTEX_POINT('',#374);
#374 = CARTESIAN_POINT('',(7.5,-7.,7.5));
#375 = LINE('',#376,#377);
#376 = CARTESIAN_POINT('',(52.5,-7.,7.5));
#377 = VECTOR('',#378,1.);
#378 = DIRECTION('',(-1.,0.,0.));
#379 = ORIENTED_EDGE('',*,*,#380,.F.);
#380 = EDGE_CURVE('',#192,#373,#381,.T.);
#381 = LINE('',#382,#383);
#382 = CARTESIAN_POINT('',(7.5,1.165442659313E-14,7.5));
#383 = VECTOR('',#384,1.);
#384 = DIRECTION('',(0.,-1.,2.22044604925E-16));
#385 = ORIENTED_EDGE('',*,*,#189,.F.);
#386 = PLANE('',#387);
#387 = AXIS2_PLACEMENT_3D('',#388,#389,#390);
#388 = CARTESIAN_POINT('',(52.5,1.165442659313E-14,7.5));
#389 = DIRECTION('',(-0.,-2.22044604925E-16,-1.));
#390 = DIRECTION('',(-1.,0.,0.));
#391 = ADVANCED_FACE('',(#392),#410,.F.);
#392 = FACE_BOUND('',#393,.F.);
#393 = EDGE_LOOP('',(#394,#395,#403,#409));
#394 = ORIENTED_EDGE('',*,*,#380,.T.);
#395 = ORIENTED_EDGE('',*,*,#396,.T.);
#396 = EDGE_CURVE('',#373,#397,#399,.T.);
#397 = VERTEX_POINT('',#398);
#398 = CARTESIAN_POINT('',(7.5,-7.,82.5));
#399 = LINE('',#400,#401);
#400 = CARTESIAN_POINT('',(7.5,-7.,7.5));
#401 = VECTOR('',#402,1.);
#402 = DIRECTION('',(0.,2.22044604925E-16,1.));
#403 = ORIENTED_EDGE('',*,*,#404,.F.);
#404 = EDGE_CURVE('',#208,#397,#405,.T.);
#405 = LINE('',#406,#407);
#406 = CARTESIAN_POINT('',(7.5,2.830777196251E-14,82.5));
#407 = VECTOR('',#408,1.);
#408 = DIRECTION('',(0.,-1.,2.22044604925E-16));
#409 = ORIENTED_EDGE('',*,*,#215,.F.);
#410 = PLANE('',#411);
#411 = AXIS2_PLACEMENT_3D('',#412,#413,#414);
#412 = CARTESIAN_POINT('',(7.5,1.165442659313E-14,7.5));
#413 = DIRECTION('',(-1.,0.,0.));
#414 = DIRECTION('',(0.,2.22044604925E-16,1.));
#415 = ADVANCED_FACE('',(#416),#434,.F.);
#416 = FACE_BOUND('',#417,.F.);
#417 = EDGE_LOOP('',(#418,#419,#427,#433));
#418 = ORIENTED_EDGE('',*,*,#404,.T.);
#419 = ORIENTED_EDGE('',*,*,#420,.T.);
#420 = EDGE_CURVE('',#397,#421,#423,.T.);
#421 = VERTEX_POINT('',#422);
#422 = CARTESIAN_POINT('',(52.5,-7.,82.5));
#423 = LINE('',#424,#425);
#424 = CARTESIAN_POINT('',(7.5,-7.,82.5));
#425 = VECTOR('',#426,1.);
#426 = DIRECTION('',(1.,0.,0.));
#427 = ORIENTED_EDGE('',*,*,#428,.F.);
#428 = EDGE_CURVE('',#200,#421,#429,.T.);
#429 = LINE('',#430,#431);
#430 = CARTESIAN_POINT('',(52.5,2.830777196251E-14,82.5));
#431 = VECTOR('',#432,1.);
#432 = DIRECTION('',(0.,-1.,2.22044604925E-16));
#433 = ORIENTED_EDGE('',*,*,#207,.F.);
#434 = PLANE('',#435);
#435 = AXIS2_PLACEMENT_3D('',#436,#437,#438);
#436 = CARTESIAN_POINT('',(7.5,2.830777196251E-14,82.5));
#437 = DIRECTION('',(0.,2.22044604925E-16,1.));
#438 = DIRECTION('',(1.,0.,0.));
#439 = ADVANCED_FACE('',(#440),#451,.F.);
#440 = FACE_BOUND('',#441,.F.);
#441 = EDGE_LOOP('',(#442,#443,#449,#450));
#442 = ORIENTED_EDGE('',*,*,#428,.T.);
#443 = ORIENTED_EDGE('',*,*,#444,.T.);
#444 = EDGE_CURVE('',#421,#365,#445,.T.);
#445 = LINE('',#446,#447);
#446 = CARTESIAN_POINT('',(52.5,-7.,82.5));
#447 = VECTOR('',#448,1.);
#448 = DIRECTION('',(0.,-2.22044604925E-16,-1.));
#449 = ORIENTED_EDGE('',*,*,#364,.F.);
#450 = ORIENTED_EDGE('',*,*,#199,.F.);
#451 = PLANE('',#452);
#452 = AXIS2_PLACEMENT_3D('',#453,#454,#455);
#453 = CARTESIAN_POINT('',(52.5,2.830777196251E-14,82.5));
#454 = DIRECTION('',(1.,0.,0.));
#455 = DIRECTION('',(0.,-2.22044604925E-16,-1.));
#456 = ADVANCED_FACE('',(#457),#468,.F.);
#457 = FACE_BOUND('',#458,.T.);
#458 = EDGE_LOOP('',(#459,#465,#466,#467));
#459 = ORIENTED_EDGE('',*,*,#460,.T.);
#460 = EDGE_CURVE('',#224,#263,#461,.T.);
#461 = LINE('',#462,#463);
#462 = CARTESIAN_POINT('',(56.8,1.909583602355E-14,86.));
#463 = VECTOR('',#464,1.);
#464 = DIRECTION('',(0.,-1.,2.22044604925E-16));
#465 = ORIENTED_EDGE('',*,*,#262,.T.);
#466 = ORIENTED_EDGE('',*,*,#460,.F.);
#467 = ORIENTED_EDGE('',*,*,#223,.F.);
#468 = CYLINDRICAL_SURFACE('',#469,0.8);
#469 = AXIS2_PLACEMENT_3D('',#470,#471,#472);
#470 = CARTESIAN_POINT('',(56.,1.909583602355E-14,86.));
#471 = DIRECTION('',(0.,1.,-2.22044604925E-16));
#472 = DIRECTION('',(1.,0.,0.));
#473 = ADVANCED_FACE('',(#474),#480,.T.);
#474 = FACE_BOUND('',#475,.T.);
#475 = EDGE_LOOP('',(#476,#477,#478,#479));
#476 = ORIENTED_EDGE('',*,*,#372,.T.);
#477 = ORIENTED_EDGE('',*,*,#396,.T.);
#478 = ORIENTED_EDGE('',*,*,#420,.T.);
#479 = ORIENTED_EDGE('',*,*,#444,.T.);
#480 = PLANE('',#481);
#481 = AXIS2_PLACEMENT_3D('',#482,#483,#484);
#482 = CARTESIAN_POINT('',(30.,-7.,45.));
#483 = DIRECTION('',(0.,1.,0.));
#484 = DIRECTION('',(0.,0.,1.));
#485 = ( GEOMETRIC_REPRESENTATION_CONTEXT(3) 
GLOBAL_UNCERTAINTY_ASSIGNED_CONTEXT((#489)) GLOBAL_UNIT_ASSIGNED_CONTEXT
((#486,#487,#488)) REPRESENTATION_CONTEXT('Context #1',
  '3D Context with UNIT and UNCERTAINTY') );
#486 = ( LENGTH_UNIT() NAMED_UNIT(*) SI_UNIT(.MILLI.,.METRE.) );
#487 = ( NAMED_UNIT(*) PLANE_ANGLE_UNIT() SI_UNIT($,.RADIAN.) );
#488 = ( NAMED_UNIT(*) SI_UNIT($,.STERADIAN.) SOLID_ANGLE_UNIT() );
#489 = UNCERTAINTY_MEASURE_WITH_UNIT(LENGTH_MEASURE(1.E-07),#486,
  'distance_accuracy_value','confusion accuracy');
#490 = CONTEXT_DEPENDENT_SHAPE_REPRESENTATION(#491,#493);
#491 = ( REPRESENTATION_RELATIONSHIP('','',#36,#10) 
REPRESENTATION_RELATIONSHIP_WITH_TRANSFORMATION(#492) 
SHAPE_REPRESENTATION_RELATIONSHIP() );
#492 = ITEM_DEFINED_TRANSFORMATION('','',#11,#15);
#493 = PRODUCT_DEFINITION_SHAPE('Placement','Placement of an item',#494
  );
#494 = NEXT_ASSEMBLY_USAGE_OCCURRENCE('7','Body001','',#5,#31,$);
#495 = PRODUCT_RELATED_PRODUCT_CATEGORY('part',$,(#33));
#496 = SHAPE_DEFINITION_REPRESENTATION(#497,#503);
#497 = PRODUCT_DEFINITION_SHAPE('','',#498);
#498 = PRODUCT_DEFINITION('design','',#499,#502);
#499 = PRODUCT_DEFINITION_FORMATION('','',#500);
#500 = PRODUCT('Body','Body','',(#501));
#501 = PRODUCT_CONTEXT('',#2,'mechanical');
#502 = PRODUCT_DEFINITION_CONTEXT('part definition',#2,'design');
#503 = ADVANCED_BREP_SHAPE_REPRESENTATION('',(#11,#504),#1919);
#504 = MANIFOLD_SOLID_BREP('',#505);
#505 = CLOSED_SHELL('',(#506,#768,#808,#832,#856,#882,#922,#946,#970,
    #996,#1027,#1051,#1075,#1099,#1134,#1158,#1182,#1199,#1224,#1249,
    #1280,#1304,#1328,#1345,#1376,#1400,#1424,#1441,#1458,#1470,#1487,
    #1499,#1593,#1618,#1676,#1698,#1715,#1735,#1747,#1772,#1797,#1822,
    #1847,#1865,#1883,#1901));
#506 = ADVANCED_FACE('',(#507,#557,#607,#673,#684,#695,#729),#763,.T.);
#507 = FACE_BOUND('',#508,.T.);
#508 = EDGE_LOOP('',(#509,#519,#527,#535,#543,#551));
#509 = ORIENTED_EDGE('',*,*,#510,.F.);
#510 = EDGE_CURVE('',#511,#513,#515,.T.);
#511 = VERTEX_POINT('',#512);
#512 = CARTESIAN_POINT('',(8.48245,-38.,7.2115));
#513 = VERTEX_POINT('',#514);
#514 = CARTESIAN_POINT('',(5.48245,-38.,7.2115));
#515 = LINE('',#516,#517);
#516 = CARTESIAN_POINT('',(4.991225,-38.,7.2115));
#517 = VECTOR('',#518,1.);
#518 = DIRECTION('',(-1.,-0.,-0.));
#519 = ORIENTED_EDGE('',*,*,#520,.F.);
#520 = EDGE_CURVE('',#521,#511,#523,.T.);
#521 = VERTEX_POINT('',#522);
#522 = CARTESIAN_POINT('',(9.98245,-38.,7.2115));
#523 = LINE('',#524,#525);
#524 = CARTESIAN_POINT('',(9.98245,-38.,7.2115));
#525 = VECTOR('',#526,1.);
#526 = DIRECTION('',(-1.,0.,0.));
#527 = ORIENTED_EDGE('',*,*,#528,.F.);
#528 = EDGE_CURVE('',#529,#521,#531,.T.);
#529 = VERTEX_POINT('',#530);
#530 = CARTESIAN_POINT('',(9.98245,-38.,83.2115));
#531 = LINE('',#532,#533);
#532 = CARTESIAN_POINT('',(9.98245,-38.,83.2115));
#533 = VECTOR('',#534,1.);
#534 = DIRECTION('',(0.,-2.22044604925E-16,-1.));
#535 = ORIENTED_EDGE('',*,*,#536,.F.);
#536 = EDGE_CURVE('',#537,#529,#539,.T.);
#537 = VERTEX_POINT('',#538);
#538 = CARTESIAN_POINT('',(8.48245,-38.,83.2115));
#539 = LINE('',#540,#541);
#540 = CARTESIAN_POINT('',(8.48245,-38.,83.2115));
#541 = VECTOR('',#542,1.);
#542 = DIRECTION('',(1.,0.,0.));
#543 = ORIENTED_EDGE('',*,*,#544,.T.);
#544 = EDGE_CURVE('',#537,#545,#547,.T.);
#545 = VERTEX_POINT('',#546);
#546 = CARTESIAN_POINT('',(5.48245,-38.,83.2115));
#547 = LINE('',#548,#549);
#548 = CARTESIAN_POINT('',(4.241225,-38.,83.2115));
#549 = VECTOR('',#550,1.);
#550 = DIRECTION('',(-1.,0.,0.));
#551 = ORIENTED_EDGE('',*,*,#552,.F.);
#552 = EDGE_CURVE('',#513,#545,#553,.T.);
#553 = LINE('',#554,#555);
#554 = CARTESIAN_POINT('',(5.48245,-38.,7.2115));
#555 = VECTOR('',#556,1.);
#556 = DIRECTION('',(0.,2.22044604925E-16,1.));
#557 = FACE_BOUND('',#558,.T.);
#558 = EDGE_LOOP('',(#559,#569,#577,#585,#593,#601));
#559 = ORIENTED_EDGE('',*,*,#560,.F.);
#560 = EDGE_CURVE('',#561,#563,#565,.T.);
#561 = VERTEX_POINT('',#562);
#562 = CARTESIAN_POINT('',(32.9004269,-38.,83.20011139));
#563 = VERTEX_POINT('',#564);
#564 = CARTESIAN_POINT('',(37.9004269,-38.,83.20011139));
#565 = LINE('',#566,#567);
#566 = CARTESIAN_POINT('',(15.70021345,-38.,83.20011139));
#567 = VECTOR('',#568,1.);
#568 = DIRECTION('',(1.,0.,0.));
#569 = ORIENTED_EDGE('',*,*,#570,.F.);
#570 = EDGE_CURVE('',#571,#561,#573,.T.);
#571 = VERTEX_POINT('',#572);
#572 = CARTESIAN_POINT('',(31.4004269,-38.,83.20011139));
#573 = LINE('',#574,#575);
#574 = CARTESIAN_POINT('',(31.4004269,-38.,83.20011139));
#575 = VECTOR('',#576,1.);
#576 = DIRECTION('',(1.,0.,0.));
#577 = ORIENTED_EDGE('',*,*,#578,.F.);
#578 = EDGE_CURVE('',#579,#571,#581,.T.);
#579 = VERTEX_POINT('',#580);
#580 = CARTESIAN_POINT('',(31.4004269,-38.,7.20011139));
#581 = LINE('',#582,#583);
#582 = CARTESIAN_POINT('',(31.4004269,-38.,7.20011139));
#583 = VECTOR('',#584,1.);
#584 = DIRECTION('',(0.,2.22044604925E-16,1.));
#585 = ORIENTED_EDGE('',*,*,#586,.F.);
#586 = EDGE_CURVE('',#587,#579,#589,.T.);
#587 = VERTEX_POINT('',#588);
#588 = CARTESIAN_POINT('',(32.9004269,-38.,7.20011139));
#589 = LINE('',#590,#591);
#590 = CARTESIAN_POINT('',(32.9004269,-38.,7.20011139));
#591 = VECTOR('',#592,1.);
#592 = DIRECTION('',(-1.,0.,0.));
#593 = ORIENTED_EDGE('',*,*,#594,.T.);
#594 = EDGE_CURVE('',#587,#595,#597,.T.);
#595 = VERTEX_POINT('',#596);
#596 = CARTESIAN_POINT('',(37.9004269,-38.,7.20011139));
#597 = LINE('',#598,#599);
#598 = CARTESIAN_POINT('',(16.45021345,-38.,7.20011139));
#599 = VECTOR('',#600,1.);
#600 = DIRECTION('',(1.,0.,0.));
#601 = ORIENTED_EDGE('',*,*,#602,.F.);
#602 = EDGE_CURVE('',#563,#595,#603,.T.);
#603 = LINE('',#604,#605);
#604 = CARTESIAN_POINT('',(37.9004269,-38.,83.20011139));
#605 = VECTOR('',#606,1.);
#606 = DIRECTION('',(0.,-2.22044604925E-16,-1.));
#607 = FACE_BOUND('',#608,.T.);
#608 = EDGE_LOOP('',(#609,#619,#627,#635,#643,#651,#659,#667));
#609 = ORIENTED_EDGE('',*,*,#610,.T.);
#610 = EDGE_CURVE('',#611,#613,#615,.T.);
#611 = VERTEX_POINT('',#612);
#612 = CARTESIAN_POINT('',(2.,-38.,9.5));
#613 = VERTEX_POINT('',#614);
#614 = CARTESIAN_POINT('',(2.,-38.,80.5));
#615 = LINE('',#616,#617);
#616 = CARTESIAN_POINT('',(2.,-38.,0.));
#617 = VECTOR('',#618,1.);
#618 = DIRECTION('',(0.,0.,1.));
#619 = ORIENTED_EDGE('',*,*,#620,.T.);
#620 = EDGE_CURVE('',#613,#621,#623,.T.);
#621 = VERTEX_POINT('',#622);
#622 = CARTESIAN_POINT('',(9.5,-38.,88.));
#623 = LINE('',#624,#625);
#624 = CARTESIAN_POINT('',(-16.75,-38.,61.75));
#625 = VECTOR('',#626,1.);
#626 = DIRECTION('',(0.707106781187,0.,0.707106781187));
#627 = ORIENTED_EDGE('',*,*,#628,.T.);
#628 = EDGE_CURVE('',#621,#629,#631,.T.);
#629 = VERTEX_POINT('',#630);
#630 = CARTESIAN_POINT('',(50.5,-38.,88.));
#631 = LINE('',#632,#633);
#632 = CARTESIAN_POINT('',(15.,-38.,88.));
#633 = VECTOR('',#634,1.);
#634 = DIRECTION('',(1.,0.,0.));
#635 = ORIENTED_EDGE('',*,*,#636,.F.);
#636 = EDGE_CURVE('',#637,#629,#639,.T.);
#637 = VERTEX_POINT('',#638);
#638 = CARTESIAN_POINT('',(58.,-38.,80.5));
#639 = LINE('',#640,#641);
#640 = CARTESIAN_POINT('',(61.75,-38.,76.75));
#641 = VECTOR('',#642,1.);
#642 = DIRECTION('',(-0.707106781187,0.,0.707106781187));
#643 = ORIENTED_EDGE('',*,*,#644,.F.);
#644 = EDGE_CURVE('',#645,#637,#647,.T.);
#645 = VERTEX_POINT('',#646);
#646 = CARTESIAN_POINT('',(58.,-38.,9.5));
#647 = LINE('',#648,#649);
#648 = CARTESIAN_POINT('',(58.,-38.,0.));
#649 = VECTOR('',#650,1.);
#650 = DIRECTION('',(0.,0.,1.));
#651 = ORIENTED_EDGE('',*,*,#652,.T.);
#652 = EDGE_CURVE('',#645,#653,#655,.T.);
#653 = VERTEX_POINT('',#654);
#654 = CARTESIAN_POINT('',(50.5,-38.,2.));
#655 = LINE('',#656,#657);
#656 = CARTESIAN_POINT('',(39.25,-38.,-9.25));
#657 = VECTOR('',#658,1.);
#658 = DIRECTION('',(-0.707106781187,0.,-0.707106781187));
#659 = ORIENTED_EDGE('',*,*,#660,.F.);
#660 = EDGE_CURVE('',#661,#653,#663,.T.);
#661 = VERTEX_POINT('',#662);
#662 = CARTESIAN_POINT('',(9.5,-38.,2.));
#663 = LINE('',#664,#665);
#664 = CARTESIAN_POINT('',(15.,-38.,2.));
#665 = VECTOR('',#666,1.);
#666 = DIRECTION('',(1.,0.,0.));
#667 = ORIENTED_EDGE('',*,*,#668,.T.);
#668 = EDGE_CURVE('',#661,#611,#669,.T.);
#669 = LINE('',#670,#671);
#670 = CARTESIAN_POINT('',(5.75,-38.,5.75));
#671 = VECTOR('',#672,1.);
#672 = DIRECTION('',(-0.707106781187,0.,0.707106781187));
#673 = FACE_BOUND('',#674,.T.);
#674 = EDGE_LOOP('',(#675));
#675 = ORIENTED_EDGE('',*,*,#676,.F.);
#676 = EDGE_CURVE('',#677,#677,#679,.T.);
#677 = VERTEX_POINT('',#678);
#678 = CARTESIAN_POINT('',(42.25,-38.,76.6));
#679 = CIRCLE('',#680,2.75);
#680 = AXIS2_PLACEMENT_3D('',#681,#682,#683);
#681 = CARTESIAN_POINT('',(45.,-38.,76.6));
#682 = DIRECTION('',(0.,1.,-2.22044604925E-16));
#683 = DIRECTION('',(-1.,0.,0.));
#684 = FACE_BOUND('',#685,.T.);
#685 = EDGE_LOOP('',(#686));
#686 = ORIENTED_EDGE('',*,*,#687,.F.);
#687 = EDGE_CURVE('',#688,#688,#690,.T.);
#688 = VERTEX_POINT('',#689);
#689 = CARTESIAN_POINT('',(42.25,-38.,66.6));
#690 = CIRCLE('',#691,2.75);
#691 = AXIS2_PLACEMENT_3D('',#692,#693,#694);
#692 = CARTESIAN_POINT('',(45.,-38.,66.6));
#693 = DIRECTION('',(0.,1.,-2.22044604925E-16));
#694 = DIRECTION('',(-1.,0.,0.));
#695 = FACE_BOUND('',#696,.T.);
#696 = EDGE_LOOP('',(#697,#707,#715,#723));
#697 = ORIENTED_EDGE('',*,*,#698,.F.);
#698 = EDGE_CURVE('',#699,#701,#703,.T.);
#699 = VERTEX_POINT('',#700);
#700 = CARTESIAN_POINT('',(49.,-38.,40.));
#701 = VERTEX_POINT('',#702);
#702 = CARTESIAN_POINT('',(41.,-38.,40.));
#703 = LINE('',#704,#705);
#704 = CARTESIAN_POINT('',(49.,-38.,40.));
#705 = VECTOR('',#706,1.);
#706 = DIRECTION('',(-1.,0.,0.));
#707 = ORIENTED_EDGE('',*,*,#708,.F.);
#708 = EDGE_CURVE('',#709,#699,#711,.T.);
#709 = VERTEX_POINT('',#710);
#710 = CARTESIAN_POINT('',(49.,-38.,56.1));
#711 = LINE('',#712,#713);
#712 = CARTESIAN_POINT('',(49.,-38.,56.1));
#713 = VECTOR('',#714,1.);
#714 = DIRECTION('',(0.,-2.22044604925E-16,-1.));
#715 = ORIENTED_EDGE('',*,*,#716,.F.);
#716 = EDGE_CURVE('',#717,#709,#719,.T.);
#717 = VERTEX_POINT('',#718);
#718 = CARTESIAN_POINT('',(41.,-38.,56.1));
#719 = LINE('',#720,#721);
#720 = CARTESIAN_POINT('',(41.,-38.,56.1));
#721 = VECTOR('',#722,1.);
#722 = DIRECTION('',(1.,0.,0.));
#723 = ORIENTED_EDGE('',*,*,#724,.F.);
#724 = EDGE_CURVE('',#701,#717,#725,.T.);
#725 = LINE('',#726,#727);
#726 = CARTESIAN_POINT('',(41.,-38.,40.));
#727 = VECTOR('',#728,1.);
#728 = DIRECTION('',(0.,2.22044604925E-16,1.));
#729 = FACE_BOUND('',#730,.T.);
#730 = EDGE_LOOP('',(#731,#741,#749,#757));
#731 = ORIENTED_EDGE('',*,*,#732,.F.);
#732 = EDGE_CURVE('',#733,#735,#737,.T.);
#733 = VERTEX_POINT('',#734);
#734 = CARTESIAN_POINT('',(31.4,-38.,6.5));
#735 = VERTEX_POINT('',#736);
#736 = CARTESIAN_POINT('',(10.,-38.,6.5));
#737 = LINE('',#738,#739);
#738 = CARTESIAN_POINT('',(5.,-38.,6.5));
#739 = VECTOR('',#740,1.);
#740 = DIRECTION('',(-1.,0.,0.));
#741 = ORIENTED_EDGE('',*,*,#742,.F.);
#742 = EDGE_CURVE('',#743,#733,#745,.T.);
#743 = VERTEX_POINT('',#744);
#744 = CARTESIAN_POINT('',(31.4,-38.,83.2));
#745 = LINE('',#746,#747);
#746 = CARTESIAN_POINT('',(31.4,-38.,3.25));
#747 = VECTOR('',#748,1.);
#748 = DIRECTION('',(0.,0.,-1.));
#749 = ORIENTED_EDGE('',*,*,#750,.F.);
#750 = EDGE_CURVE('',#751,#743,#753,.T.);
#751 = VERTEX_POINT('',#752);
#752 = CARTESIAN_POINT('',(10.,-38.,83.2));
#753 = LINE('',#754,#755);
#754 = CARTESIAN_POINT('',(15.7,-38.,83.2));
#755 = VECTOR('',#756,1.);
#756 = DIRECTION('',(1.,0.,0.));
#757 = ORIENTED_EDGE('',*,*,#758,.F.);
#758 = EDGE_CURVE('',#735,#751,#759,.T.);
#759 = LINE('',#760,#761);
#760 = CARTESIAN_POINT('',(10.,-38.,41.6));
#761 = VECTOR('',#762,1.);
#762 = DIRECTION('',(0.,0.,1.));
#763 = PLANE('',#764);
#764 = AXIS2_PLACEMENT_3D('',#765,#766,#767);
#765 = CARTESIAN_POINT('',(0.,-38.,0.));
#766 = DIRECTION('',(0.,1.,0.));
#767 = DIRECTION('',(1.,0.,0.));
#768 = ADVANCED_FACE('',(#769),#803,.F.);
#769 = FACE_BOUND('',#770,.F.);
#770 = EDGE_LOOP('',(#771,#781,#787,#788,#789,#797));
#771 = ORIENTED_EDGE('',*,*,#772,.F.);
#772 = EDGE_CURVE('',#773,#775,#777,.T.);
#773 = VERTEX_POINT('',#774);
#774 = CARTESIAN_POINT('',(8.48245,-35.,7.2115));
#775 = VERTEX_POINT('',#776);
#776 = CARTESIAN_POINT('',(8.48245,-20.,7.2115));
#777 = LINE('',#778,#779);
#778 = CARTESIAN_POINT('',(8.48245,-38.,7.2115));
#779 = VECTOR('',#780,1.);
#780 = DIRECTION('',(0.,1.,-2.22044604925E-16));
#781 = ORIENTED_EDGE('',*,*,#782,.F.);
#782 = EDGE_CURVE('',#513,#773,#783,.T.);
#783 = LINE('',#784,#785);
#784 = CARTESIAN_POINT('',(7.35745,-36.125,7.2115));
#785 = VECTOR('',#786,1.);
#786 = DIRECTION('',(0.707106781187,0.707106781187,-1.570092458684E-16)
  );
#787 = ORIENTED_EDGE('',*,*,#510,.F.);
#788 = ORIENTED_EDGE('',*,*,#520,.F.);
#789 = ORIENTED_EDGE('',*,*,#790,.T.);
#790 = EDGE_CURVE('',#521,#791,#793,.T.);
#791 = VERTEX_POINT('',#792);
#792 = CARTESIAN_POINT('',(9.98245,-20.,7.2115));
#793 = LINE('',#794,#795);
#794 = CARTESIAN_POINT('',(9.98245,-38.,7.2115));
#795 = VECTOR('',#796,1.);
#796 = DIRECTION('',(0.,1.,-2.22044604925E-16));
#797 = ORIENTED_EDGE('',*,*,#798,.T.);
#798 = EDGE_CURVE('',#791,#775,#799,.T.);
#799 = LINE('',#800,#801);
#800 = CARTESIAN_POINT('',(9.98245,-20.,7.2115));
#801 = VECTOR('',#802,1.);
#802 = DIRECTION('',(-1.,0.,0.));
#803 = PLANE('',#804);
#804 = AXIS2_PLACEMENT_3D('',#805,#806,#807);
#805 = CARTESIAN_POINT('',(9.98245,-38.,7.2115));
#806 = DIRECTION('',(0.,2.22044604925E-16,1.));
#807 = DIRECTION('',(-1.,0.,0.));
#808 = ADVANCED_FACE('',(#809),#827,.T.);
#809 = FACE_BOUND('',#810,.T.);
#810 = EDGE_LOOP('',(#811,#812,#813,#821));
#811 = ORIENTED_EDGE('',*,*,#782,.F.);
#812 = ORIENTED_EDGE('',*,*,#552,.T.);
#813 = ORIENTED_EDGE('',*,*,#814,.T.);
#814 = EDGE_CURVE('',#545,#815,#817,.T.);
#815 = VERTEX_POINT('',#816);
#816 = CARTESIAN_POINT('',(8.48245,-35.,83.2115));
#817 = LINE('',#818,#819);
#818 = CARTESIAN_POINT('',(6.98245,-36.5,83.2115));
#819 = VECTOR('',#820,1.);
#820 = DIRECTION('',(0.707106781187,0.707106781187,-1.570092458684E-16)
  );
#821 = ORIENTED_EDGE('',*,*,#822,.F.);
#822 = EDGE_CURVE('',#773,#815,#823,.T.);
#823 = LINE('',#824,#825);
#824 = CARTESIAN_POINT('',(8.48245,-35.,7.2115));
#825 = VECTOR('',#826,1.);
#826 = DIRECTION('',(0.,2.22044604925E-16,1.));
#827 = PLANE('',#828);
#828 = AXIS2_PLACEMENT_3D('',#829,#830,#831);
#829 = CARTESIAN_POINT('',(6.98245,-36.5,7.2115));
#830 = DIRECTION('',(-0.707106781187,0.707106781187,0.));
#831 = DIRECTION('',(1.110223024625E-16,1.110223024625E-16,1.));
#832 = ADVANCED_FACE('',(#833),#851,.F.);
#833 = FACE_BOUND('',#834,.F.);
#834 = EDGE_LOOP('',(#835,#843,#849,#850));
#835 = ORIENTED_EDGE('',*,*,#836,.T.);
#836 = EDGE_CURVE('',#529,#837,#839,.T.);
#837 = VERTEX_POINT('',#838);
#838 = CARTESIAN_POINT('',(9.98245,-20.,83.2115));
#839 = LINE('',#840,#841);
#840 = CARTESIAN_POINT('',(9.98245,-38.,83.2115));
#841 = VECTOR('',#842,1.);
#842 = DIRECTION('',(0.,1.,-2.22044604925E-16));
#843 = ORIENTED_EDGE('',*,*,#844,.T.);
#844 = EDGE_CURVE('',#837,#791,#845,.T.);
#845 = LINE('',#846,#847);
#846 = CARTESIAN_POINT('',(9.98245,-20.,83.2115));
#847 = VECTOR('',#848,1.);
#848 = DIRECTION('',(0.,-2.22044604925E-16,-1.));
#849 = ORIENTED_EDGE('',*,*,#790,.F.);
#850 = ORIENTED_EDGE('',*,*,#528,.F.);
#851 = PLANE('',#852);
#852 = AXIS2_PLACEMENT_3D('',#853,#854,#855);
#853 = CARTESIAN_POINT('',(9.98245,-38.,83.2115));
#854 = DIRECTION('',(-1.,0.,0.));
#855 = DIRECTION('',(0.,-2.22044604925E-16,-1.));
#856 = ADVANCED_FACE('',(#857),#877,.F.);
#857 = FACE_BOUND('',#858,.F.);
#858 = EDGE_LOOP('',(#859,#867,#873,#874,#875,#876));
#859 = ORIENTED_EDGE('',*,*,#860,.T.);
#860 = EDGE_CURVE('',#815,#861,#863,.T.);
#861 = VERTEX_POINT('',#862);
#862 = CARTESIAN_POINT('',(8.48245,-20.,83.2115));
#863 = LINE('',#864,#865);
#864 = CARTESIAN_POINT('',(8.48245,-38.,83.2115));
#865 = VECTOR('',#866,1.);
#866 = DIRECTION('',(0.,1.,-2.22044604925E-16));
#867 = ORIENTED_EDGE('',*,*,#868,.T.);
#868 = EDGE_CURVE('',#861,#837,#869,.T.);
#869 = LINE('',#870,#871);
#870 = CARTESIAN_POINT('',(8.48245,-20.,83.2115));
#871 = VECTOR('',#872,1.);
#872 = DIRECTION('',(1.,0.,0.));
#873 = ORIENTED_EDGE('',*,*,#836,.F.);
#874 = ORIENTED_EDGE('',*,*,#536,.F.);
#875 = ORIENTED_EDGE('',*,*,#544,.T.);
#876 = ORIENTED_EDGE('',*,*,#814,.T.);
#877 = PLANE('',#878);
#878 = AXIS2_PLACEMENT_3D('',#879,#880,#881);
#879 = CARTESIAN_POINT('',(8.48245,-38.,83.2115));
#880 = DIRECTION('',(0.,-2.22044604925E-16,-1.));
#881 = DIRECTION('',(1.,0.,0.));
#882 = ADVANCED_FACE('',(#883),#917,.F.);
#883 = FACE_BOUND('',#884,.F.);
#884 = EDGE_LOOP('',(#885,#895,#901,#902,#903,#911));
#885 = ORIENTED_EDGE('',*,*,#886,.F.);
#886 = EDGE_CURVE('',#887,#889,#891,.T.);
#887 = VERTEX_POINT('',#888);
#888 = CARTESIAN_POINT('',(32.9004269,-33.,83.20011139));
#889 = VERTEX_POINT('',#890);
#890 = CARTESIAN_POINT('',(32.9004269,-20.,83.20011139));
#891 = LINE('',#892,#893);
#892 = CARTESIAN_POINT('',(32.9004269,-38.,83.20011139));
#893 = VECTOR('',#894,1.);
#894 = DIRECTION('',(0.,1.,-2.22044604925E-16));
#895 = ORIENTED_EDGE('',*,*,#896,.F.);
#896 = EDGE_CURVE('',#563,#887,#897,.T.);
#897 = LINE('',#898,#899);
#898 = CARTESIAN_POINT('',(35.0254269,-35.125,83.20011139));
#899 = VECTOR('',#900,1.);
#900 = DIRECTION('',(-0.707106781187,0.707106781187,-1.570092458684E-16)
  );
#901 = ORIENTED_EDGE('',*,*,#560,.F.);
#902 = ORIENTED_EDGE('',*,*,#570,.F.);
#903 = ORIENTED_EDGE('',*,*,#904,.T.);
#904 = EDGE_CURVE('',#571,#905,#907,.T.);
#905 = VERTEX_POINT('',#906);
#906 = CARTESIAN_POINT('',(31.4004269,-20.,83.20011139));
#907 = LINE('',#908,#909);
#908 = CARTESIAN_POINT('',(31.4004269,-38.,83.20011139));
#909 = VECTOR('',#910,1.);
#910 = DIRECTION('',(0.,1.,-2.22044604925E-16));
#911 = ORIENTED_EDGE('',*,*,#912,.T.);
#912 = EDGE_CURVE('',#905,#889,#913,.T.);
#913 = LINE('',#914,#915);
#914 = CARTESIAN_POINT('',(31.4004269,-20.,83.20011139));
#915 = VECTOR('',#916,1.);
#916 = DIRECTION('',(1.,0.,0.));
#917 = PLANE('',#918);
#918 = AXIS2_PLACEMENT_3D('',#919,#920,#921);
#919 = CARTESIAN_POINT('',(31.4004269,-38.,83.20011139));
#920 = DIRECTION('',(0.,-2.22044604925E-16,-1.));
#921 = DIRECTION('',(1.,0.,0.));
#922 = ADVANCED_FACE('',(#923),#941,.T.);
#923 = FACE_BOUND('',#924,.T.);
#924 = EDGE_LOOP('',(#925,#926,#927,#935));
#925 = ORIENTED_EDGE('',*,*,#896,.F.);
#926 = ORIENTED_EDGE('',*,*,#602,.T.);
#927 = ORIENTED_EDGE('',*,*,#928,.T.);
#928 = EDGE_CURVE('',#595,#929,#931,.T.);
#929 = VERTEX_POINT('',#930);
#930 = CARTESIAN_POINT('',(32.9004269,-33.,7.20011139));
#931 = LINE('',#932,#933);
#932 = CARTESIAN_POINT('',(35.4004269,-35.5,7.20011139));
#933 = VECTOR('',#934,1.);
#934 = DIRECTION('',(-0.707106781187,0.707106781187,-1.570092458684E-16)
  );
#935 = ORIENTED_EDGE('',*,*,#936,.F.);
#936 = EDGE_CURVE('',#887,#929,#937,.T.);
#937 = LINE('',#938,#939);
#938 = CARTESIAN_POINT('',(32.9004269,-33.,83.20011139));
#939 = VECTOR('',#940,1.);
#940 = DIRECTION('',(0.,-2.22044604925E-16,-1.));
#941 = PLANE('',#942);
#942 = AXIS2_PLACEMENT_3D('',#943,#944,#945);
#943 = CARTESIAN_POINT('',(35.4004269,-35.5,83.20011139));
#944 = DIRECTION('',(0.707106781187,0.707106781187,0.));
#945 = DIRECTION('',(1.110223024625E-16,-1.110223024625E-16,-1.));
#946 = ADVANCED_FACE('',(#947),#965,.F.);
#947 = FACE_BOUND('',#948,.F.);
#948 = EDGE_LOOP('',(#949,#957,#963,#964));
#949 = ORIENTED_EDGE('',*,*,#950,.T.);
#950 = EDGE_CURVE('',#579,#951,#953,.T.);
#951 = VERTEX_POINT('',#952);
#952 = CARTESIAN_POINT('',(31.4004269,-20.,7.20011139));
#953 = LINE('',#954,#955);
#954 = CARTESIAN_POINT('',(31.4004269,-38.,7.20011139));
#955 = VECTOR('',#956,1.);
#956 = DIRECTION('',(0.,1.,-2.22044604925E-16));
#957 = ORIENTED_EDGE('',*,*,#958,.T.);
#958 = EDGE_CURVE('',#951,#905,#959,.T.);
#959 = LINE('',#960,#961);
#960 = CARTESIAN_POINT('',(31.4004269,-20.,7.20011139));
#961 = VECTOR('',#962,1.);
#962 = DIRECTION('',(0.,2.22044604925E-16,1.));
#963 = ORIENTED_EDGE('',*,*,#904,.F.);
#964 = ORIENTED_EDGE('',*,*,#578,.F.);
#965 = PLANE('',#966);
#966 = AXIS2_PLACEMENT_3D('',#967,#968,#969);
#967 = CARTESIAN_POINT('',(31.4004269,-38.,7.20011139));
#968 = DIRECTION('',(1.,0.,0.));
#969 = DIRECTION('',(0.,2.22044604925E-16,1.));
#970 = ADVANCED_FACE('',(#971),#991,.F.);
#971 = FACE_BOUND('',#972,.F.);
#972 = EDGE_LOOP('',(#973,#981,#987,#988,#989,#990));
#973 = ORIENTED_EDGE('',*,*,#974,.T.);
#974 = EDGE_CURVE('',#929,#975,#977,.T.);
#975 = VERTEX_POINT('',#976);
#976 = CARTESIAN_POINT('',(32.9004269,-20.,7.20011139));
#977 = LINE('',#978,#979);
#978 = CARTESIAN_POINT('',(32.9004269,-38.,7.20011139));
#979 = VECTOR('',#980,1.);
#980 = DIRECTION('',(0.,1.,-2.22044604925E-16));
#981 = ORIENTED_EDGE('',*,*,#982,.T.);
#982 = EDGE_CURVE('',#975,#951,#983,.T.);
#983 = LINE('',#984,#985);
#984 = CARTESIAN_POINT('',(32.9004269,-20.,7.20011139));
#985 = VECTOR('',#986,1.);
#986 = DIRECTION('',(-1.,0.,0.));
#987 = ORIENTED_EDGE('',*,*,#950,.F.);
#988 = ORIENTED_EDGE('',*,*,#586,.F.);
#989 = ORIENTED_EDGE('',*,*,#594,.T.);
#990 = ORIENTED_EDGE('',*,*,#928,.T.);
#991 = PLANE('',#992);
#992 = AXIS2_PLACEMENT_3D('',#993,#994,#995);
#993 = CARTESIAN_POINT('',(32.9004269,-38.,7.20011139));
#994 = DIRECTION('',(0.,2.22044604925E-16,1.));
#995 = DIRECTION('',(-1.,0.,0.));
#996 = ADVANCED_FACE('',(#997),#1022,.T.);
#997 = FACE_BOUND('',#998,.T.);
#998 = EDGE_LOOP('',(#999,#1009,#1015,#1016));
#999 = ORIENTED_EDGE('',*,*,#1000,.T.);
#1000 = EDGE_CURVE('',#1001,#1003,#1005,.T.);
#1001 = VERTEX_POINT('',#1002);
#1002 = CARTESIAN_POINT('',(2.,0.,9.5));
#1003 = VERTEX_POINT('',#1004);
#1004 = CARTESIAN_POINT('',(2.,0.,80.5));
#1005 = LINE('',#1006,#1007);
#1006 = CARTESIAN_POINT('',(2.,0.,0.));
#1007 = VECTOR('',#1008,1.);
#1008 = DIRECTION('',(0.,0.,1.));
#1009 = ORIENTED_EDGE('',*,*,#1010,.T.);
#1010 = EDGE_CURVE('',#1003,#613,#1011,.T.);
#1011 = LINE('',#1012,#1013);
#1012 = CARTESIAN_POINT('',(2.,0.,80.5));
#1013 = VECTOR('',#1014,1.);
#1014 = DIRECTION('',(0.,-1.,0.));
#1015 = ORIENTED_EDGE('',*,*,#610,.F.);
#1016 = ORIENTED_EDGE('',*,*,#1017,.F.);
#1017 = EDGE_CURVE('',#1001,#611,#1018,.T.);
#1018 = LINE('',#1019,#1020);
#1019 = CARTESIAN_POINT('',(2.,0.,9.5));
#1020 = VECTOR('',#1021,1.);
#1021 = DIRECTION('',(0.,-1.,0.));
#1022 = PLANE('',#1023);
#1023 = AXIS2_PLACEMENT_3D('',#1024,#1025,#1026);
#1024 = CARTESIAN_POINT('',(2.,0.,0.));
#1025 = DIRECTION('',(1.,0.,0.));
#1026 = DIRECTION('',(0.,-1.,0.));
#1027 = ADVANCED_FACE('',(#1028),#1046,.F.);
#1028 = FACE_BOUND('',#1029,.F.);
#1029 = EDGE_LOOP('',(#1030,#1038,#1044,#1045));
#1030 = ORIENTED_EDGE('',*,*,#1031,.F.);
#1031 = EDGE_CURVE('',#1032,#1001,#1034,.T.);
#1032 = VERTEX_POINT('',#1033);
#1033 = CARTESIAN_POINT('',(9.5,0.,2.));
#1034 = LINE('',#1035,#1036);
#1035 = CARTESIAN_POINT('',(20.75,0.,-9.25));
#1036 = VECTOR('',#1037,1.);
#1037 = DIRECTION('',(-0.707106781187,0.,0.707106781187));
#1038 = ORIENTED_EDGE('',*,*,#1039,.T.);
#1039 = EDGE_CURVE('',#1032,#661,#1040,.T.);
#1040 = LINE('',#1041,#1042);
#1041 = CARTESIAN_POINT('',(9.5,0.,2.));
#1042 = VECTOR('',#1043,1.);
#1043 = DIRECTION('',(0.,-1.,0.));
#1044 = ORIENTED_EDGE('',*,*,#668,.T.);
#1045 = ORIENTED_EDGE('',*,*,#1017,.F.);
#1046 = PLANE('',#1047);
#1047 = AXIS2_PLACEMENT_3D('',#1048,#1049,#1050);
#1048 = CARTESIAN_POINT('',(5.75,0.,5.75));
#1049 = DIRECTION('',(-0.707106781187,0.,-0.707106781187));
#1050 = DIRECTION('',(0.,-1.,0.));
#1051 = ADVANCED_FACE('',(#1052),#1070,.T.);
#1052 = FACE_BOUND('',#1053,.F.);
#1053 = EDGE_LOOP('',(#1054,#1062,#1063,#1064));
#1054 = ORIENTED_EDGE('',*,*,#1055,.F.);
#1055 = EDGE_CURVE('',#1003,#1056,#1058,.T.);
#1056 = VERTEX_POINT('',#1057);
#1057 = CARTESIAN_POINT('',(9.5,0.,88.));
#1058 = LINE('',#1059,#1060);
#1059 = CARTESIAN_POINT('',(-1.75,0.,76.75));
#1060 = VECTOR('',#1061,1.);
#1061 = DIRECTION('',(0.707106781187,0.,0.707106781187));
#1062 = ORIENTED_EDGE('',*,*,#1010,.T.);
#1063 = ORIENTED_EDGE('',*,*,#620,.T.);
#1064 = ORIENTED_EDGE('',*,*,#1065,.F.);
#1065 = EDGE_CURVE('',#1056,#621,#1066,.T.);
#1066 = LINE('',#1067,#1068);
#1067 = CARTESIAN_POINT('',(9.5,0.,88.));
#1068 = VECTOR('',#1069,1.);
#1069 = DIRECTION('',(0.,-1.,0.));
#1070 = PLANE('',#1071);
#1071 = AXIS2_PLACEMENT_3D('',#1072,#1073,#1074);
#1072 = CARTESIAN_POINT('',(5.75,0.,84.25));
#1073 = DIRECTION('',(0.707106781187,0.,-0.707106781187));
#1074 = DIRECTION('',(0.,1.,0.));
#1075 = ADVANCED_FACE('',(#1076),#1094,.T.);
#1076 = FACE_BOUND('',#1077,.T.);
#1077 = EDGE_LOOP('',(#1078,#1086,#1087,#1088));
#1078 = ORIENTED_EDGE('',*,*,#1079,.T.);
#1079 = EDGE_CURVE('',#1080,#1032,#1082,.T.);
#1080 = VERTEX_POINT('',#1081);
#1081 = CARTESIAN_POINT('',(50.5,0.,2.));
#1082 = LINE('',#1083,#1084);
#1083 = CARTESIAN_POINT('',(60.,0.,2.));
#1084 = VECTOR('',#1085,1.);
#1085 = DIRECTION('',(-1.,0.,0.));
#1086 = ORIENTED_EDGE('',*,*,#1039,.T.);
#1087 = ORIENTED_EDGE('',*,*,#660,.T.);
#1088 = ORIENTED_EDGE('',*,*,#1089,.T.);
#1089 = EDGE_CURVE('',#653,#1080,#1090,.T.);
#1090 = LINE('',#1091,#1092);
#1091 = CARTESIAN_POINT('',(50.5,-38.,2.));
#1092 = VECTOR('',#1093,1.);
#1093 = DIRECTION('',(0.,1.,0.));
#1094 = PLANE('',#1095);
#1095 = AXIS2_PLACEMENT_3D('',#1096,#1097,#1098);
#1096 = CARTESIAN_POINT('',(30.,-20.,2.));
#1097 = DIRECTION('',(0.,0.,1.));
#1098 = DIRECTION('',(1.,0.,0.));
#1099 = ADVANCED_FACE('',(#1100,#1118),#1129,.F.);
#1100 = FACE_BOUND('',#1101,.F.);
#1101 = EDGE_LOOP('',(#1102,#1110,#1111,#1112));
#1102 = ORIENTED_EDGE('',*,*,#1103,.T.);
#1103 = EDGE_CURVE('',#1104,#1056,#1106,.T.);
#1104 = VERTEX_POINT('',#1105);
#1105 = CARTESIAN_POINT('',(50.5,0.,88.));
#1106 = LINE('',#1107,#1108);
#1107 = CARTESIAN_POINT('',(60.,0.,88.));
#1108 = VECTOR('',#1109,1.);
#1109 = DIRECTION('',(-1.,0.,0.));
#1110 = ORIENTED_EDGE('',*,*,#1065,.T.);
#1111 = ORIENTED_EDGE('',*,*,#628,.T.);
#1112 = ORIENTED_EDGE('',*,*,#1113,.T.);
#1113 = EDGE_CURVE('',#629,#1104,#1114,.T.);
#1114 = LINE('',#1115,#1116);
#1115 = CARTESIAN_POINT('',(50.5,-38.,88.));
#1116 = VECTOR('',#1117,1.);
#1117 = DIRECTION('',(0.,1.,0.));
#1118 = FACE_BOUND('',#1119,.F.);
#1119 = EDGE_LOOP('',(#1120));
#1120 = ORIENTED_EDGE('',*,*,#1121,.T.);
#1121 = EDGE_CURVE('',#1122,#1122,#1124,.T.);
#1122 = VERTEX_POINT('',#1123);
#1123 = CARTESIAN_POINT('',(47.75,-19.25,88.));
#1124 = CIRCLE('',#1125,2.75);
#1125 = AXIS2_PLACEMENT_3D('',#1126,#1127,#1128);
#1126 = CARTESIAN_POINT('',(45.,-19.25,88.));
#1127 = DIRECTION('',(0.,0.,-1.));
#1128 = DIRECTION('',(1.,0.,0.));
#1129 = PLANE('',#1130);
#1130 = AXIS2_PLACEMENT_3D('',#1131,#1132,#1133);
#1131 = CARTESIAN_POINT('',(30.,-20.,88.));
#1132 = DIRECTION('',(0.,0.,1.));
#1133 = DIRECTION('',(1.,0.,0.));
#1134 = ADVANCED_FACE('',(#1135),#1153,.F.);
#1135 = FACE_BOUND('',#1136,.T.);
#1136 = EDGE_LOOP('',(#1137,#1138,#1146,#1152));
#1137 = ORIENTED_EDGE('',*,*,#652,.F.);
#1138 = ORIENTED_EDGE('',*,*,#1139,.T.);
#1139 = EDGE_CURVE('',#645,#1140,#1142,.T.);
#1140 = VERTEX_POINT('',#1141);
#1141 = CARTESIAN_POINT('',(58.,0.,9.5));
#1142 = LINE('',#1143,#1144);
#1143 = CARTESIAN_POINT('',(58.,-38.,9.5));
#1144 = VECTOR('',#1145,1.);
#1145 = DIRECTION('',(0.,1.,0.));
#1146 = ORIENTED_EDGE('',*,*,#1147,.T.);
#1147 = EDGE_CURVE('',#1140,#1080,#1148,.T.);
#1148 = LINE('',#1149,#1150);
#1149 = CARTESIAN_POINT('',(54.25,-3.552713678801E-15,5.75));
#1150 = VECTOR('',#1151,1.);
#1151 = DIRECTION('',(-0.707106781187,-0.,-0.707106781187));
#1152 = ORIENTED_EDGE('',*,*,#1089,.F.);
#1153 = PLANE('',#1154);
#1154 = AXIS2_PLACEMENT_3D('',#1155,#1156,#1157);
#1155 = CARTESIAN_POINT('',(54.25,-38.,5.75));
#1156 = DIRECTION('',(0.707106781187,0.,-0.707106781187));
#1157 = DIRECTION('',(-0.,-1.,-0.));
#1158 = ADVANCED_FACE('',(#1159),#1177,.T.);
#1159 = FACE_BOUND('',#1160,.F.);
#1160 = EDGE_LOOP('',(#1161,#1162,#1170,#1176));
#1161 = ORIENTED_EDGE('',*,*,#636,.F.);
#1162 = ORIENTED_EDGE('',*,*,#1163,.T.);
#1163 = EDGE_CURVE('',#637,#1164,#1166,.T.);
#1164 = VERTEX_POINT('',#1165);
#1165 = CARTESIAN_POINT('',(58.,0.,80.5));
#1166 = LINE('',#1167,#1168);
#1167 = CARTESIAN_POINT('',(58.,-38.,80.5));
#1168 = VECTOR('',#1169,1.);
#1169 = DIRECTION('',(0.,1.,0.));
#1170 = ORIENTED_EDGE('',*,*,#1171,.T.);
#1171 = EDGE_CURVE('',#1164,#1104,#1172,.T.);
#1172 = LINE('',#1173,#1174);
#1173 = CARTESIAN_POINT('',(76.75,-3.552713678801E-15,61.75));
#1174 = VECTOR('',#1175,1.);
#1175 = DIRECTION('',(-0.707106781187,0.,0.707106781187));
#1176 = ORIENTED_EDGE('',*,*,#1113,.F.);
#1177 = PLANE('',#1178);
#1178 = AXIS2_PLACEMENT_3D('',#1179,#1180,#1181);
#1179 = CARTESIAN_POINT('',(54.25,-38.,84.25));
#1180 = DIRECTION('',(-0.707106781187,0.,-0.707106781187));
#1181 = DIRECTION('',(-0.,-1.,-0.));
#1182 = ADVANCED_FACE('',(#1183),#1194,.T.);
#1183 = FACE_BOUND('',#1184,.T.);
#1184 = EDGE_LOOP('',(#1185,#1191,#1192,#1193));
#1185 = ORIENTED_EDGE('',*,*,#1186,.F.);
#1186 = EDGE_CURVE('',#1140,#1164,#1187,.T.);
#1187 = LINE('',#1188,#1189);
#1188 = CARTESIAN_POINT('',(58.,0.,0.));
#1189 = VECTOR('',#1190,1.);
#1190 = DIRECTION('',(0.,0.,1.));
#1191 = ORIENTED_EDGE('',*,*,#1139,.F.);
#1192 = ORIENTED_EDGE('',*,*,#644,.T.);
#1193 = ORIENTED_EDGE('',*,*,#1163,.T.);
#1194 = PLANE('',#1195);
#1195 = AXIS2_PLACEMENT_3D('',#1196,#1197,#1198);
#1196 = CARTESIAN_POINT('',(58.,-40.,0.));
#1197 = DIRECTION('',(-1.,0.,0.));
#1198 = DIRECTION('',(0.,1.,0.));
#1199 = ADVANCED_FACE('',(#1200),#1219,.F.);
#1200 = FACE_BOUND('',#1201,.F.);
#1201 = EDGE_LOOP('',(#1202,#1203,#1211,#1218));
#1202 = ORIENTED_EDGE('',*,*,#676,.F.);
#1203 = ORIENTED_EDGE('',*,*,#1204,.T.);
#1204 = EDGE_CURVE('',#677,#1205,#1207,.T.);
#1205 = VERTEX_POINT('',#1206);
#1206 = CARTESIAN_POINT('',(42.25,-40.,76.6));
#1207 = LINE('',#1208,#1209);
#1208 = CARTESIAN_POINT('',(42.25,-38.,76.6));
#1209 = VECTOR('',#1210,1.);
#1210 = DIRECTION('',(0.,-1.,2.22044604925E-16));
#1211 = ORIENTED_EDGE('',*,*,#1212,.T.);
#1212 = EDGE_CURVE('',#1205,#1205,#1213,.T.);
#1213 = CIRCLE('',#1214,2.75);
#1214 = AXIS2_PLACEMENT_3D('',#1215,#1216,#1217);
#1215 = CARTESIAN_POINT('',(45.,-40.,76.6));
#1216 = DIRECTION('',(0.,1.,-2.22044604925E-16));
#1217 = DIRECTION('',(-1.,0.,0.));
#1218 = ORIENTED_EDGE('',*,*,#1204,.F.);
#1219 = CYLINDRICAL_SURFACE('',#1220,2.75);
#1220 = AXIS2_PLACEMENT_3D('',#1221,#1222,#1223);
#1221 = CARTESIAN_POINT('',(45.,-38.,76.6));
#1222 = DIRECTION('',(0.,1.,-2.22044604925E-16));
#1223 = DIRECTION('',(-1.,0.,0.));
#1224 = ADVANCED_FACE('',(#1225),#1244,.F.);
#1225 = FACE_BOUND('',#1226,.F.);
#1226 = EDGE_LOOP('',(#1227,#1228,#1236,#1243));
#1227 = ORIENTED_EDGE('',*,*,#687,.F.);
#1228 = ORIENTED_EDGE('',*,*,#1229,.T.);
#1229 = EDGE_CURVE('',#688,#1230,#1232,.T.);
#1230 = VERTEX_POINT('',#1231);
#1231 = CARTESIAN_POINT('',(42.25,-40.,66.6));
#1232 = LINE('',#1233,#1234);
#1233 = CARTESIAN_POINT('',(42.25,-38.,66.6));
#1234 = VECTOR('',#1235,1.);
#1235 = DIRECTION('',(0.,-1.,2.22044604925E-16));
#1236 = ORIENTED_EDGE('',*,*,#1237,.T.);
#1237 = EDGE_CURVE('',#1230,#1230,#1238,.T.);
#1238 = CIRCLE('',#1239,2.75);
#1239 = AXIS2_PLACEMENT_3D('',#1240,#1241,#1242);
#1240 = CARTESIAN_POINT('',(45.,-40.,66.6));
#1241 = DIRECTION('',(0.,1.,-2.22044604925E-16));
#1242 = DIRECTION('',(-1.,0.,0.));
#1243 = ORIENTED_EDGE('',*,*,#1229,.F.);
#1244 = CYLINDRICAL_SURFACE('',#1245,2.75);
#1245 = AXIS2_PLACEMENT_3D('',#1246,#1247,#1248);
#1246 = CARTESIAN_POINT('',(45.,-38.,66.6));
#1247 = DIRECTION('',(0.,1.,-2.22044604925E-16));
#1248 = DIRECTION('',(-1.,0.,0.));
#1249 = ADVANCED_FACE('',(#1250),#1275,.F.);
#1250 = FACE_BOUND('',#1251,.F.);
#1251 = EDGE_LOOP('',(#1252,#1253,#1261,#1269));
#1252 = ORIENTED_EDGE('',*,*,#698,.F.);
#1253 = ORIENTED_EDGE('',*,*,#1254,.T.);
#1254 = EDGE_CURVE('',#699,#1255,#1257,.T.);
#1255 = VERTEX_POINT('',#1256);
#1256 = CARTESIAN_POINT('',(49.,-40.,40.));
#1257 = LINE('',#1258,#1259);
#1258 = CARTESIAN_POINT('',(49.,-38.,40.));
#1259 = VECTOR('',#1260,1.);
#1260 = DIRECTION('',(0.,-1.,2.22044604925E-16));
#1261 = ORIENTED_EDGE('',*,*,#1262,.T.);
#1262 = EDGE_CURVE('',#1255,#1263,#1265,.T.);
#1263 = VERTEX_POINT('',#1264);
#1264 = CARTESIAN_POINT('',(41.,-40.,40.));
#1265 = LINE('',#1266,#1267);
#1266 = CARTESIAN_POINT('',(24.5,-40.,40.));
#1267 = VECTOR('',#1268,1.);
#1268 = DIRECTION('',(-1.,0.,0.));
#1269 = ORIENTED_EDGE('',*,*,#1270,.F.);
#1270 = EDGE_CURVE('',#701,#1263,#1271,.T.);
#1271 = LINE('',#1272,#1273);
#1272 = CARTESIAN_POINT('',(41.,-38.,40.));
#1273 = VECTOR('',#1274,1.);
#1274 = DIRECTION('',(0.,-1.,2.22044604925E-16));
#1275 = PLANE('',#1276);
#1276 = AXIS2_PLACEMENT_3D('',#1277,#1278,#1279);
#1277 = CARTESIAN_POINT('',(49.,-38.,40.));
#1278 = DIRECTION('',(-0.,-2.22044604925E-16,-1.));
#1279 = DIRECTION('',(-1.,0.,0.));
#1280 = ADVANCED_FACE('',(#1281),#1299,.F.);
#1281 = FACE_BOUND('',#1282,.F.);
#1282 = EDGE_LOOP('',(#1283,#1284,#1292,#1298));
#1283 = ORIENTED_EDGE('',*,*,#708,.F.);
#1284 = ORIENTED_EDGE('',*,*,#1285,.T.);
#1285 = EDGE_CURVE('',#709,#1286,#1288,.T.);
#1286 = VERTEX_POINT('',#1287);
#1287 = CARTESIAN_POINT('',(49.,-40.,56.1));
#1288 = LINE('',#1289,#1290);
#1289 = CARTESIAN_POINT('',(49.,-38.,56.1));
#1290 = VECTOR('',#1291,1.);
#1291 = DIRECTION('',(0.,-1.,2.22044604925E-16));
#1292 = ORIENTED_EDGE('',*,*,#1293,.T.);
#1293 = EDGE_CURVE('',#1286,#1255,#1294,.T.);
#1294 = LINE('',#1295,#1296);
#1295 = CARTESIAN_POINT('',(49.,-40.,28.05));
#1296 = VECTOR('',#1297,1.);
#1297 = DIRECTION('',(0.,0.,-1.));
#1298 = ORIENTED_EDGE('',*,*,#1254,.F.);
#1299 = PLANE('',#1300);
#1300 = AXIS2_PLACEMENT_3D('',#1301,#1302,#1303);
#1301 = CARTESIAN_POINT('',(49.,-38.,56.1));
#1302 = DIRECTION('',(1.,0.,0.));
#1303 = DIRECTION('',(0.,-2.22044604925E-16,-1.));
#1304 = ADVANCED_FACE('',(#1305),#1323,.F.);
#1305 = FACE_BOUND('',#1306,.F.);
#1306 = EDGE_LOOP('',(#1307,#1308,#1309,#1317));
#1307 = ORIENTED_EDGE('',*,*,#724,.F.);
#1308 = ORIENTED_EDGE('',*,*,#1270,.T.);
#1309 = ORIENTED_EDGE('',*,*,#1310,.T.);
#1310 = EDGE_CURVE('',#1263,#1311,#1313,.T.);
#1311 = VERTEX_POINT('',#1312);
#1312 = CARTESIAN_POINT('',(41.,-40.,56.1));
#1313 = LINE('',#1314,#1315);
#1314 = CARTESIAN_POINT('',(41.,-40.,20.));
#1315 = VECTOR('',#1316,1.);
#1316 = DIRECTION('',(0.,0.,1.));
#1317 = ORIENTED_EDGE('',*,*,#1318,.F.);
#1318 = EDGE_CURVE('',#717,#1311,#1319,.T.);
#1319 = LINE('',#1320,#1321);
#1320 = CARTESIAN_POINT('',(41.,-38.,56.1));
#1321 = VECTOR('',#1322,1.);
#1322 = DIRECTION('',(0.,-1.,2.22044604925E-16));
#1323 = PLANE('',#1324);
#1324 = AXIS2_PLACEMENT_3D('',#1325,#1326,#1327);
#1325 = CARTESIAN_POINT('',(41.,-38.,40.));
#1326 = DIRECTION('',(-1.,0.,0.));
#1327 = DIRECTION('',(0.,2.22044604925E-16,1.));
#1328 = ADVANCED_FACE('',(#1329),#1340,.F.);
#1329 = FACE_BOUND('',#1330,.F.);
#1330 = EDGE_LOOP('',(#1331,#1332,#1333,#1339));
#1331 = ORIENTED_EDGE('',*,*,#716,.F.);
#1332 = ORIENTED_EDGE('',*,*,#1318,.T.);
#1333 = ORIENTED_EDGE('',*,*,#1334,.T.);
#1334 = EDGE_CURVE('',#1311,#1286,#1335,.T.);
#1335 = LINE('',#1336,#1337);
#1336 = CARTESIAN_POINT('',(20.5,-40.,56.1));
#1337 = VECTOR('',#1338,1.);
#1338 = DIRECTION('',(1.,0.,0.));
#1339 = ORIENTED_EDGE('',*,*,#1285,.F.);
#1340 = PLANE('',#1341);
#1341 = AXIS2_PLACEMENT_3D('',#1342,#1343,#1344);
#1342 = CARTESIAN_POINT('',(41.,-38.,56.1));
#1343 = DIRECTION('',(0.,2.22044604925E-16,1.));
#1344 = DIRECTION('',(1.,0.,0.));
#1345 = ADVANCED_FACE('',(#1346),#1371,.F.);
#1346 = FACE_BOUND('',#1347,.F.);
#1347 = EDGE_LOOP('',(#1348,#1358,#1364,#1365));
#1348 = ORIENTED_EDGE('',*,*,#1349,.F.);
#1349 = EDGE_CURVE('',#1350,#1352,#1354,.T.);
#1350 = VERTEX_POINT('',#1351);
#1351 = CARTESIAN_POINT('',(10.,-40.,6.5));
#1352 = VERTEX_POINT('',#1353);
#1353 = CARTESIAN_POINT('',(31.4,-40.,6.5));
#1354 = LINE('',#1355,#1356);
#1355 = CARTESIAN_POINT('',(10.,-40.,6.5));
#1356 = VECTOR('',#1357,1.);
#1357 = DIRECTION('',(1.,0.,0.));
#1358 = ORIENTED_EDGE('',*,*,#1359,.T.);
#1359 = EDGE_CURVE('',#1350,#735,#1360,.T.);
#1360 = LINE('',#1361,#1362);
#1361 = CARTESIAN_POINT('',(10.,-40.,6.5));
#1362 = VECTOR('',#1363,1.);
#1363 = DIRECTION('',(0.,1.,-2.22044604925E-16));
#1364 = ORIENTED_EDGE('',*,*,#732,.F.);
#1365 = ORIENTED_EDGE('',*,*,#1366,.F.);
#1366 = EDGE_CURVE('',#1352,#733,#1367,.T.);
#1367 = LINE('',#1368,#1369);
#1368 = CARTESIAN_POINT('',(31.4,-40.,6.5));
#1369 = VECTOR('',#1370,1.);
#1370 = DIRECTION('',(0.,1.,-2.22044604925E-16));
#1371 = PLANE('',#1372);
#1372 = AXIS2_PLACEMENT_3D('',#1373,#1374,#1375);
#1373 = CARTESIAN_POINT('',(10.,-40.,6.5));
#1374 = DIRECTION('',(0.,-2.22044604925E-16,-1.));
#1375 = DIRECTION('',(1.,0.,0.));
#1376 = ADVANCED_FACE('',(#1377),#1395,.F.);
#1377 = FACE_BOUND('',#1378,.F.);
#1378 = EDGE_LOOP('',(#1379,#1387,#1388,#1389));
#1379 = ORIENTED_EDGE('',*,*,#1380,.F.);
#1380 = EDGE_CURVE('',#1352,#1381,#1383,.T.);
#1381 = VERTEX_POINT('',#1382);
#1382 = CARTESIAN_POINT('',(31.4,-40.,83.2));
#1383 = LINE('',#1384,#1385);
#1384 = CARTESIAN_POINT('',(31.4,-40.,6.5));
#1385 = VECTOR('',#1386,1.);
#1386 = DIRECTION('',(0.,2.22044604925E-16,1.));
#1387 = ORIENTED_EDGE('',*,*,#1366,.T.);
#1388 = ORIENTED_EDGE('',*,*,#742,.F.);
#1389 = ORIENTED_EDGE('',*,*,#1390,.F.);
#1390 = EDGE_CURVE('',#1381,#743,#1391,.T.);
#1391 = LINE('',#1392,#1393);
#1392 = CARTESIAN_POINT('',(31.4,-40.,83.2));
#1393 = VECTOR('',#1394,1.);
#1394 = DIRECTION('',(0.,1.,-2.22044604925E-16));
#1395 = PLANE('',#1396);
#1396 = AXIS2_PLACEMENT_3D('',#1397,#1398,#1399);
#1397 = CARTESIAN_POINT('',(31.4,-40.,6.5));
#1398 = DIRECTION('',(1.,0.,0.));
#1399 = DIRECTION('',(0.,2.22044604925E-16,1.));
#1400 = ADVANCED_FACE('',(#1401),#1419,.F.);
#1401 = FACE_BOUND('',#1402,.F.);
#1402 = EDGE_LOOP('',(#1403,#1411,#1417,#1418));
#1403 = ORIENTED_EDGE('',*,*,#1404,.F.);
#1404 = EDGE_CURVE('',#1405,#1350,#1407,.T.);
#1405 = VERTEX_POINT('',#1406);
#1406 = CARTESIAN_POINT('',(10.,-40.,83.2));
#1407 = LINE('',#1408,#1409);
#1408 = CARTESIAN_POINT('',(10.,-40.,83.2));
#1409 = VECTOR('',#1410,1.);
#1410 = DIRECTION('',(0.,-2.22044604925E-16,-1.));
#1411 = ORIENTED_EDGE('',*,*,#1412,.T.);
#1412 = EDGE_CURVE('',#1405,#751,#1413,.T.);
#1413 = LINE('',#1414,#1415);
#1414 = CARTESIAN_POINT('',(10.,-40.,83.2));
#1415 = VECTOR('',#1416,1.);
#1416 = DIRECTION('',(0.,1.,-2.22044604925E-16));
#1417 = ORIENTED_EDGE('',*,*,#758,.F.);
#1418 = ORIENTED_EDGE('',*,*,#1359,.F.);
#1419 = PLANE('',#1420);
#1420 = AXIS2_PLACEMENT_3D('',#1421,#1422,#1423);
#1421 = CARTESIAN_POINT('',(10.,-40.,83.2));
#1422 = DIRECTION('',(-1.,0.,0.));
#1423 = DIRECTION('',(0.,-2.22044604925E-16,-1.));
#1424 = ADVANCED_FACE('',(#1425),#1436,.F.);
#1425 = FACE_BOUND('',#1426,.F.);
#1426 = EDGE_LOOP('',(#1427,#1433,#1434,#1435));
#1427 = ORIENTED_EDGE('',*,*,#1428,.F.);
#1428 = EDGE_CURVE('',#1381,#1405,#1429,.T.);
#1429 = LINE('',#1430,#1431);
#1430 = CARTESIAN_POINT('',(31.4,-40.,83.2));
#1431 = VECTOR('',#1432,1.);
#1432 = DIRECTION('',(-1.,0.,0.));
#1433 = ORIENTED_EDGE('',*,*,#1390,.T.);
#1434 = ORIENTED_EDGE('',*,*,#750,.F.);
#1435 = ORIENTED_EDGE('',*,*,#1412,.F.);
#1436 = PLANE('',#1437);
#1437 = AXIS2_PLACEMENT_3D('',#1438,#1439,#1440);
#1438 = CARTESIAN_POINT('',(31.4,-40.,83.2));
#1439 = DIRECTION('',(0.,2.22044604925E-16,1.));
#1440 = DIRECTION('',(-1.,0.,0.));
#1441 = ADVANCED_FACE('',(#1442),#1453,.F.);
#1442 = FACE_BOUND('',#1443,.F.);
#1443 = EDGE_LOOP('',(#1444,#1445,#1451,#1452));
#1444 = ORIENTED_EDGE('',*,*,#772,.T.);
#1445 = ORIENTED_EDGE('',*,*,#1446,.T.);
#1446 = EDGE_CURVE('',#775,#861,#1447,.T.);
#1447 = LINE('',#1448,#1449);
#1448 = CARTESIAN_POINT('',(8.48245,-20.,7.2115));
#1449 = VECTOR('',#1450,1.);
#1450 = DIRECTION('',(0.,2.22044604925E-16,1.));
#1451 = ORIENTED_EDGE('',*,*,#860,.F.);
#1452 = ORIENTED_EDGE('',*,*,#822,.F.);
#1453 = PLANE('',#1454);
#1454 = AXIS2_PLACEMENT_3D('',#1455,#1456,#1457);
#1455 = CARTESIAN_POINT('',(8.48245,-38.,7.2115));
#1456 = DIRECTION('',(1.,0.,0.));
#1457 = DIRECTION('',(0.,2.22044604925E-16,1.));
#1458 = ADVANCED_FACE('',(#1459),#1465,.T.);
#1459 = FACE_BOUND('',#1460,.T.);
#1460 = EDGE_LOOP('',(#1461,#1462,#1463,#1464));
#1461 = ORIENTED_EDGE('',*,*,#844,.T.);
#1462 = ORIENTED_EDGE('',*,*,#798,.T.);
#1463 = ORIENTED_EDGE('',*,*,#1446,.T.);
#1464 = ORIENTED_EDGE('',*,*,#868,.T.);
#1465 = PLANE('',#1466);
#1466 = AXIS2_PLACEMENT_3D('',#1467,#1468,#1469);
#1467 = CARTESIAN_POINT('',(20.69143845,-20.,45.205805695));
#1468 = DIRECTION('',(0.,1.,-2.804773956679E-16));
#1469 = DIRECTION('',(0.,2.804773956679E-16,1.));
#1470 = ADVANCED_FACE('',(#1471),#1482,.F.);
#1471 = FACE_BOUND('',#1472,.F.);
#1472 = EDGE_LOOP('',(#1473,#1474,#1480,#1481));
#1473 = ORIENTED_EDGE('',*,*,#886,.T.);
#1474 = ORIENTED_EDGE('',*,*,#1475,.T.);
#1475 = EDGE_CURVE('',#889,#975,#1476,.T.);
#1476 = LINE('',#1477,#1478);
#1477 = CARTESIAN_POINT('',(32.9004269,-20.,83.20011139));
#1478 = VECTOR('',#1479,1.);
#1479 = DIRECTION('',(0.,-2.22044604925E-16,-1.));
#1480 = ORIENTED_EDGE('',*,*,#974,.F.);
#1481 = ORIENTED_EDGE('',*,*,#936,.F.);
#1482 = PLANE('',#1483);
#1483 = AXIS2_PLACEMENT_3D('',#1484,#1485,#1486);
#1484 = CARTESIAN_POINT('',(32.9004269,-38.,83.20011139));
#1485 = DIRECTION('',(-1.,0.,0.));
#1486 = DIRECTION('',(0.,-2.22044604925E-16,-1.));
#1487 = ADVANCED_FACE('',(#1488),#1494,.T.);
#1488 = FACE_BOUND('',#1489,.T.);
#1489 = EDGE_LOOP('',(#1490,#1491,#1492,#1493));
#1490 = ORIENTED_EDGE('',*,*,#912,.T.);
#1491 = ORIENTED_EDGE('',*,*,#1475,.T.);
#1492 = ORIENTED_EDGE('',*,*,#982,.T.);
#1493 = ORIENTED_EDGE('',*,*,#958,.T.);
#1494 = PLANE('',#1495);
#1495 = AXIS2_PLACEMENT_3D('',#1496,#1497,#1498);
#1496 = CARTESIAN_POINT('',(20.69143845,-20.,45.205805695));
#1497 = DIRECTION('',(0.,1.,-2.804773956679E-16));
#1498 = DIRECTION('',(0.,2.804773956679E-16,1.));
#1499 = ADVANCED_FACE('',(#1500,#1534,#1545,#1556,#1567,#1577),#1588,.F.
  );
#1500 = FACE_BOUND('',#1501,.F.);
#1501 = EDGE_LOOP('',(#1502,#1512,#1520,#1528));
#1502 = ORIENTED_EDGE('',*,*,#1503,.T.);
#1503 = EDGE_CURVE('',#1504,#1506,#1508,.T.);
#1504 = VERTEX_POINT('',#1505);
#1505 = CARTESIAN_POINT('',(60.,0.,0.));
#1506 = VERTEX_POINT('',#1507);
#1507 = CARTESIAN_POINT('',(60.,0.,90.));
#1508 = LINE('',#1509,#1510);
#1509 = CARTESIAN_POINT('',(60.,0.,0.));
#1510 = VECTOR('',#1511,1.);
#1511 = DIRECTION('',(0.,0.,1.));
#1512 = ORIENTED_EDGE('',*,*,#1513,.T.);
#1513 = EDGE_CURVE('',#1506,#1514,#1516,.T.);
#1514 = VERTEX_POINT('',#1515);
#1515 = CARTESIAN_POINT('',(0.,0.,90.));
#1516 = LINE('',#1517,#1518);
#1517 = CARTESIAN_POINT('',(60.,0.,90.));
#1518 = VECTOR('',#1519,1.);
#1519 = DIRECTION('',(-1.,0.,0.));
#1520 = ORIENTED_EDGE('',*,*,#1521,.F.);
#1521 = EDGE_CURVE('',#1522,#1514,#1524,.T.);
#1522 = VERTEX_POINT('',#1523);
#1523 = CARTESIAN_POINT('',(0.,0.,0.));
#1524 = LINE('',#1525,#1526);
#1525 = CARTESIAN_POINT('',(0.,0.,0.));
#1526 = VECTOR('',#1527,1.);
#1527 = DIRECTION('',(0.,0.,1.));
#1528 = ORIENTED_EDGE('',*,*,#1529,.F.);
#1529 = EDGE_CURVE('',#1504,#1522,#1530,.T.);
#1530 = LINE('',#1531,#1532);
#1531 = CARTESIAN_POINT('',(60.,0.,0.));
#1532 = VECTOR('',#1533,1.);
#1533 = DIRECTION('',(-1.,0.,0.));
#1534 = FACE_BOUND('',#1535,.F.);
#1535 = EDGE_LOOP('',(#1536));
#1536 = ORIENTED_EDGE('',*,*,#1537,.T.);
#1537 = EDGE_CURVE('',#1538,#1538,#1540,.T.);
#1538 = VERTEX_POINT('',#1539);
#1539 = CARTESIAN_POINT('',(57.,1.909583602355E-14,86.));
#1540 = CIRCLE('',#1541,1.);
#1541 = AXIS2_PLACEMENT_3D('',#1542,#1543,#1544);
#1542 = CARTESIAN_POINT('',(56.,1.909583602355E-14,86.));
#1543 = DIRECTION('',(0.,1.,-2.22044604925E-16));
#1544 = DIRECTION('',(1.,0.,0.));
#1545 = FACE_BOUND('',#1546,.F.);
#1546 = EDGE_LOOP('',(#1547));
#1547 = ORIENTED_EDGE('',*,*,#1548,.T.);
#1548 = EDGE_CURVE('',#1549,#1549,#1551,.T.);
#1549 = VERTEX_POINT('',#1550);
#1550 = CARTESIAN_POINT('',(4.5,1.909583602355E-14,86.));
#1551 = CIRCLE('',#1552,1.);
#1552 = AXIS2_PLACEMENT_3D('',#1553,#1554,#1555);
#1553 = CARTESIAN_POINT('',(3.5,1.909583602355E-14,86.));
#1554 = DIRECTION('',(0.,1.,-2.22044604925E-16));
#1555 = DIRECTION('',(1.,0.,0.));
#1556 = FACE_BOUND('',#1557,.F.);
#1557 = EDGE_LOOP('',(#1558));
#1558 = ORIENTED_EDGE('',*,*,#1559,.T.);
#1559 = EDGE_CURVE('',#1560,#1560,#1562,.T.);
#1560 = VERTEX_POINT('',#1561);
#1561 = CARTESIAN_POINT('',(57.,7.771561172376E-16,3.5));
#1562 = CIRCLE('',#1563,1.);
#1563 = AXIS2_PLACEMENT_3D('',#1564,#1565,#1566);
#1564 = CARTESIAN_POINT('',(56.,7.771561172376E-16,3.5));
#1565 = DIRECTION('',(0.,1.,-2.22044604925E-16));
#1566 = DIRECTION('',(1.,0.,0.));
#1567 = FACE_BOUND('',#1568,.F.);
#1568 = EDGE_LOOP('',(#1569,#1570,#1571,#1572,#1573,#1574,#1575,#1576));
#1569 = ORIENTED_EDGE('',*,*,#1186,.F.);
#1570 = ORIENTED_EDGE('',*,*,#1147,.T.);
#1571 = ORIENTED_EDGE('',*,*,#1079,.T.);
#1572 = ORIENTED_EDGE('',*,*,#1031,.T.);
#1573 = ORIENTED_EDGE('',*,*,#1000,.T.);
#1574 = ORIENTED_EDGE('',*,*,#1055,.T.);
#1575 = ORIENTED_EDGE('',*,*,#1103,.F.);
#1576 = ORIENTED_EDGE('',*,*,#1171,.F.);
#1577 = FACE_BOUND('',#1578,.F.);
#1578 = EDGE_LOOP('',(#1579));
#1579 = ORIENTED_EDGE('',*,*,#1580,.T.);
#1580 = EDGE_CURVE('',#1581,#1581,#1583,.T.);
#1581 = VERTEX_POINT('',#1582);
#1582 = CARTESIAN_POINT('',(4.5,7.771561172376E-16,3.5));
#1583 = CIRCLE('',#1584,1.);
#1584 = AXIS2_PLACEMENT_3D('',#1585,#1586,#1587);
#1585 = CARTESIAN_POINT('',(3.5,7.771561172376E-16,3.5));
#1586 = DIRECTION('',(0.,1.,-2.22044604925E-16));
#1587 = DIRECTION('',(1.,0.,0.));
#1588 = PLANE('',#1589);
#1589 = AXIS2_PLACEMENT_3D('',#1590,#1591,#1592);
#1590 = CARTESIAN_POINT('',(60.,0.,0.));
#1591 = DIRECTION('',(0.,-1.,0.));
#1592 = DIRECTION('',(-1.,0.,0.));
#1593 = ADVANCED_FACE('',(#1594),#1613,.F.);
#1594 = FACE_BOUND('',#1595,.T.);
#1595 = EDGE_LOOP('',(#1596,#1597,#1605,#1612));
#1596 = ORIENTED_EDGE('',*,*,#1121,.T.);
#1597 = ORIENTED_EDGE('',*,*,#1598,.T.);
#1598 = EDGE_CURVE('',#1122,#1599,#1601,.T.);
#1599 = VERTEX_POINT('',#1600);
#1600 = CARTESIAN_POINT('',(47.75,-19.25,90.));
#1601 = LINE('',#1602,#1603);
#1602 = CARTESIAN_POINT('',(47.75,-19.25,85.));
#1603 = VECTOR('',#1604,1.);
#1604 = DIRECTION('',(0.,0.,1.));
#1605 = ORIENTED_EDGE('',*,*,#1606,.F.);
#1606 = EDGE_CURVE('',#1599,#1599,#1607,.T.);
#1607 = CIRCLE('',#1608,2.75);
#1608 = AXIS2_PLACEMENT_3D('',#1609,#1610,#1611);
#1609 = CARTESIAN_POINT('',(45.,-19.25,90.));
#1610 = DIRECTION('',(0.,0.,-1.));
#1611 = DIRECTION('',(1.,0.,0.));
#1612 = ORIENTED_EDGE('',*,*,#1598,.F.);
#1613 = CYLINDRICAL_SURFACE('',#1614,2.75);
#1614 = AXIS2_PLACEMENT_3D('',#1615,#1616,#1617);
#1615 = CARTESIAN_POINT('',(45.,-19.25,85.));
#1616 = DIRECTION('',(-0.,-0.,-1.));
#1617 = DIRECTION('',(1.,0.,0.));
#1618 = ADVANCED_FACE('',(#1619,#1653,#1659,#1662,#1665),#1671,.F.);
#1619 = FACE_BOUND('',#1620,.F.);
#1620 = EDGE_LOOP('',(#1621,#1631,#1639,#1647));
#1621 = ORIENTED_EDGE('',*,*,#1622,.T.);
#1622 = EDGE_CURVE('',#1623,#1625,#1627,.T.);
#1623 = VERTEX_POINT('',#1624);
#1624 = CARTESIAN_POINT('',(0.,-40.,0.));
#1625 = VERTEX_POINT('',#1626);
#1626 = CARTESIAN_POINT('',(0.,-40.,90.));
#1627 = LINE('',#1628,#1629);
#1628 = CARTESIAN_POINT('',(0.,-40.,0.));
#1629 = VECTOR('',#1630,1.);
#1630 = DIRECTION('',(0.,0.,1.));
#1631 = ORIENTED_EDGE('',*,*,#1632,.T.);
#1632 = EDGE_CURVE('',#1625,#1633,#1635,.T.);
#1633 = VERTEX_POINT('',#1634);
#1634 = CARTESIAN_POINT('',(60.,-40.,90.));
#1635 = LINE('',#1636,#1637);
#1636 = CARTESIAN_POINT('',(0.,-40.,90.));
#1637 = VECTOR('',#1638,1.);
#1638 = DIRECTION('',(1.,0.,0.));
#1639 = ORIENTED_EDGE('',*,*,#1640,.F.);
#1640 = EDGE_CURVE('',#1641,#1633,#1643,.T.);
#1641 = VERTEX_POINT('',#1642);
#1642 = CARTESIAN_POINT('',(60.,-40.,0.));
#1643 = LINE('',#1644,#1645);
#1644 = CARTESIAN_POINT('',(60.,-40.,0.));
#1645 = VECTOR('',#1646,1.);
#1646 = DIRECTION('',(0.,0.,1.));
#1647 = ORIENTED_EDGE('',*,*,#1648,.F.);
#1648 = EDGE_CURVE('',#1623,#1641,#1649,.T.);
#1649 = LINE('',#1650,#1651);
#1650 = CARTESIAN_POINT('',(0.,-40.,0.));
#1651 = VECTOR('',#1652,1.);
#1652 = DIRECTION('',(1.,0.,0.));
#1653 = FACE_BOUND('',#1654,.F.);
#1654 = EDGE_LOOP('',(#1655,#1656,#1657,#1658));
#1655 = ORIENTED_EDGE('',*,*,#1404,.T.);
#1656 = ORIENTED_EDGE('',*,*,#1349,.T.);
#1657 = ORIENTED_EDGE('',*,*,#1380,.T.);
#1658 = ORIENTED_EDGE('',*,*,#1428,.T.);
#1659 = FACE_BOUND('',#1660,.F.);
#1660 = EDGE_LOOP('',(#1661));
#1661 = ORIENTED_EDGE('',*,*,#1212,.F.);
#1662 = FACE_BOUND('',#1663,.F.);
#1663 = EDGE_LOOP('',(#1664));
#1664 = ORIENTED_EDGE('',*,*,#1237,.F.);
#1665 = FACE_BOUND('',#1666,.F.);
#1666 = EDGE_LOOP('',(#1667,#1668,#1669,#1670));
#1667 = ORIENTED_EDGE('',*,*,#1262,.F.);
#1668 = ORIENTED_EDGE('',*,*,#1293,.F.);
#1669 = ORIENTED_EDGE('',*,*,#1334,.F.);
#1670 = ORIENTED_EDGE('',*,*,#1310,.F.);
#1671 = PLANE('',#1672);
#1672 = AXIS2_PLACEMENT_3D('',#1673,#1674,#1675);
#1673 = CARTESIAN_POINT('',(0.,-40.,0.));
#1674 = DIRECTION('',(0.,1.,0.));
#1675 = DIRECTION('',(1.,0.,0.));
#1676 = ADVANCED_FACE('',(#1677),#1693,.F.);
#1677 = FACE_BOUND('',#1678,.F.);
#1678 = EDGE_LOOP('',(#1679,#1680,#1686,#1687));
#1679 = ORIENTED_EDGE('',*,*,#1640,.T.);
#1680 = ORIENTED_EDGE('',*,*,#1681,.T.);
#1681 = EDGE_CURVE('',#1633,#1506,#1682,.T.);
#1682 = LINE('',#1683,#1684);
#1683 = CARTESIAN_POINT('',(60.,-40.,90.));
#1684 = VECTOR('',#1685,1.);
#1685 = DIRECTION('',(0.,1.,0.));
#1686 = ORIENTED_EDGE('',*,*,#1503,.F.);
#1687 = ORIENTED_EDGE('',*,*,#1688,.F.);
#1688 = EDGE_CURVE('',#1641,#1504,#1689,.T.);
#1689 = LINE('',#1690,#1691);
#1690 = CARTESIAN_POINT('',(60.,-40.,0.));
#1691 = VECTOR('',#1692,1.);
#1692 = DIRECTION('',(0.,1.,0.));
#1693 = PLANE('',#1694);
#1694 = AXIS2_PLACEMENT_3D('',#1695,#1696,#1697);
#1695 = CARTESIAN_POINT('',(60.,-40.,0.));
#1696 = DIRECTION('',(-1.,0.,0.));
#1697 = DIRECTION('',(0.,1.,0.));
#1698 = ADVANCED_FACE('',(#1699),#1710,.F.);
#1699 = FACE_BOUND('',#1700,.F.);
#1700 = EDGE_LOOP('',(#1701,#1707,#1708,#1709));
#1701 = ORIENTED_EDGE('',*,*,#1702,.T.);
#1702 = EDGE_CURVE('',#1522,#1623,#1703,.T.);
#1703 = LINE('',#1704,#1705);
#1704 = CARTESIAN_POINT('',(0.,0.,0.));
#1705 = VECTOR('',#1706,1.);
#1706 = DIRECTION('',(0.,-1.,0.));
#1707 = ORIENTED_EDGE('',*,*,#1648,.T.);
#1708 = ORIENTED_EDGE('',*,*,#1688,.T.);
#1709 = ORIENTED_EDGE('',*,*,#1529,.T.);
#1710 = PLANE('',#1711);
#1711 = AXIS2_PLACEMENT_3D('',#1712,#1713,#1714);
#1712 = CARTESIAN_POINT('',(30.,-20.,0.));
#1713 = DIRECTION('',(0.,0.,1.));
#1714 = DIRECTION('',(1.,0.,0.));
#1715 = ADVANCED_FACE('',(#1716,#1727),#1730,.T.);
#1716 = FACE_BOUND('',#1717,.T.);
#1717 = EDGE_LOOP('',(#1718,#1724,#1725,#1726));
#1718 = ORIENTED_EDGE('',*,*,#1719,.T.);
#1719 = EDGE_CURVE('',#1514,#1625,#1720,.T.);
#1720 = LINE('',#1721,#1722);
#1721 = CARTESIAN_POINT('',(0.,0.,90.));
#1722 = VECTOR('',#1723,1.);
#1723 = DIRECTION('',(0.,-1.,0.));
#1724 = ORIENTED_EDGE('',*,*,#1632,.T.);
#1725 = ORIENTED_EDGE('',*,*,#1681,.T.);
#1726 = ORIENTED_EDGE('',*,*,#1513,.T.);
#1727 = FACE_BOUND('',#1728,.T.);
#1728 = EDGE_LOOP('',(#1729));
#1729 = ORIENTED_EDGE('',*,*,#1606,.T.);
#1730 = PLANE('',#1731);
#1731 = AXIS2_PLACEMENT_3D('',#1732,#1733,#1734);
#1732 = CARTESIAN_POINT('',(30.,-20.,90.));
#1733 = DIRECTION('',(0.,0.,1.));
#1734 = DIRECTION('',(1.,0.,0.));
#1735 = ADVANCED_FACE('',(#1736),#1742,.F.);
#1736 = FACE_BOUND('',#1737,.F.);
#1737 = EDGE_LOOP('',(#1738,#1739,#1740,#1741));
#1738 = ORIENTED_EDGE('',*,*,#1521,.T.);
#1739 = ORIENTED_EDGE('',*,*,#1719,.T.);
#1740 = ORIENTED_EDGE('',*,*,#1622,.F.);
#1741 = ORIENTED_EDGE('',*,*,#1702,.F.);
#1742 = PLANE('',#1743);
#1743 = AXIS2_PLACEMENT_3D('',#1744,#1745,#1746);
#1744 = CARTESIAN_POINT('',(0.,0.,0.));
#1745 = DIRECTION('',(1.,0.,0.));
#1746 = DIRECTION('',(0.,-1.,0.));
#1747 = ADVANCED_FACE('',(#1748),#1767,.F.);
#1748 = FACE_BOUND('',#1749,.T.);
#1749 = EDGE_LOOP('',(#1750,#1758,#1759,#1760));
#1750 = ORIENTED_EDGE('',*,*,#1751,.F.);
#1751 = EDGE_CURVE('',#1538,#1752,#1754,.T.);
#1752 = VERTEX_POINT('',#1753);
#1753 = CARTESIAN_POINT('',(57.,-10.,86.));
#1754 = LINE('',#1755,#1756);
#1755 = CARTESIAN_POINT('',(57.,1.909583602355E-14,86.));
#1756 = VECTOR('',#1757,1.);
#1757 = DIRECTION('',(-6.661338147751E-17,-1.,2.22044604925E-16));
#1758 = ORIENTED_EDGE('',*,*,#1537,.T.);
#1759 = ORIENTED_EDGE('',*,*,#1751,.T.);
#1760 = ORIENTED_EDGE('',*,*,#1761,.F.);
#1761 = EDGE_CURVE('',#1752,#1752,#1762,.T.);
#1762 = CIRCLE('',#1763,1.);
#1763 = AXIS2_PLACEMENT_3D('',#1764,#1765,#1766);
#1764 = CARTESIAN_POINT('',(56.,-10.,86.));
#1765 = DIRECTION('',(0.,1.,-2.22044604925E-16));
#1766 = DIRECTION('',(1.,0.,0.));
#1767 = CYLINDRICAL_SURFACE('',#1768,1.);
#1768 = AXIS2_PLACEMENT_3D('',#1769,#1770,#1771);
#1769 = CARTESIAN_POINT('',(56.,1.909583602355E-14,86.));
#1770 = DIRECTION('',(0.,-1.,2.22044604925E-16));
#1771 = DIRECTION('',(1.,0.,0.));
#1772 = ADVANCED_FACE('',(#1773),#1792,.F.);
#1773 = FACE_BOUND('',#1774,.T.);
#1774 = EDGE_LOOP('',(#1775,#1783,#1784,#1785));
#1775 = ORIENTED_EDGE('',*,*,#1776,.F.);
#1776 = EDGE_CURVE('',#1549,#1777,#1779,.T.);
#1777 = VERTEX_POINT('',#1778);
#1778 = CARTESIAN_POINT('',(4.5,-10.,86.));
#1779 = LINE('',#1780,#1781);
#1780 = CARTESIAN_POINT('',(4.5,1.909583602355E-14,86.));
#1781 = VECTOR('',#1782,1.);
#1782 = DIRECTION('',(-6.661338147751E-17,-1.,2.22044604925E-16));
#1783 = ORIENTED_EDGE('',*,*,#1548,.T.);
#1784 = ORIENTED_EDGE('',*,*,#1776,.T.);
#1785 = ORIENTED_EDGE('',*,*,#1786,.F.);
#1786 = EDGE_CURVE('',#1777,#1777,#1787,.T.);
#1787 = CIRCLE('',#1788,1.);
#1788 = AXIS2_PLACEMENT_3D('',#1789,#1790,#1791);
#1789 = CARTESIAN_POINT('',(3.5,-10.,86.));
#1790 = DIRECTION('',(0.,1.,-2.22044604925E-16));
#1791 = DIRECTION('',(1.,0.,0.));
#1792 = CYLINDRICAL_SURFACE('',#1793,1.);
#1793 = AXIS2_PLACEMENT_3D('',#1794,#1795,#1796);
#1794 = CARTESIAN_POINT('',(3.5,1.909583602355E-14,86.));
#1795 = DIRECTION('',(0.,-1.,2.22044604925E-16));
#1796 = DIRECTION('',(1.,0.,0.));
#1797 = ADVANCED_FACE('',(#1798),#1817,.F.);
#1798 = FACE_BOUND('',#1799,.T.);
#1799 = EDGE_LOOP('',(#1800,#1808,#1809,#1810));
#1800 = ORIENTED_EDGE('',*,*,#1801,.F.);
#1801 = EDGE_CURVE('',#1560,#1802,#1804,.T.);
#1802 = VERTEX_POINT('',#1803);
#1803 = CARTESIAN_POINT('',(57.,-10.,3.5));
#1804 = LINE('',#1805,#1806);
#1805 = CARTESIAN_POINT('',(57.,7.771561172376E-16,3.5));
#1806 = VECTOR('',#1807,1.);
#1807 = DIRECTION('',(-6.661338147751E-17,-1.,2.22044604925E-16));
#1808 = ORIENTED_EDGE('',*,*,#1559,.T.);
#1809 = ORIENTED_EDGE('',*,*,#1801,.T.);
#1810 = ORIENTED_EDGE('',*,*,#1811,.F.);
#1811 = EDGE_CURVE('',#1802,#1802,#1812,.T.);
#1812 = CIRCLE('',#1813,1.);
#1813 = AXIS2_PLACEMENT_3D('',#1814,#1815,#1816);
#1814 = CARTESIAN_POINT('',(56.,-10.,3.5));
#1815 = DIRECTION('',(0.,1.,-2.22044604925E-16));
#1816 = DIRECTION('',(1.,0.,0.));
#1817 = CYLINDRICAL_SURFACE('',#1818,1.);
#1818 = AXIS2_PLACEMENT_3D('',#1819,#1820,#1821);
#1819 = CARTESIAN_POINT('',(56.,7.771561172376E-16,3.5));
#1820 = DIRECTION('',(0.,-1.,2.22044604925E-16));
#1821 = DIRECTION('',(1.,0.,0.));
#1822 = ADVANCED_FACE('',(#1823),#1842,.F.);
#1823 = FACE_BOUND('',#1824,.T.);
#1824 = EDGE_LOOP('',(#1825,#1833,#1834,#1835));
#1825 = ORIENTED_EDGE('',*,*,#1826,.F.);
#1826 = EDGE_CURVE('',#1581,#1827,#1829,.T.);
#1827 = VERTEX_POINT('',#1828);
#1828 = CARTESIAN_POINT('',(4.5,-10.,3.5));
#1829 = LINE('',#1830,#1831);
#1830 = CARTESIAN_POINT('',(4.5,7.771561172376E-16,3.5));
#1831 = VECTOR('',#1832,1.);
#1832 = DIRECTION('',(-6.661338147751E-17,-1.,2.22044604925E-16));
#1833 = ORIENTED_EDGE('',*,*,#1580,.T.);
#1834 = ORIENTED_EDGE('',*,*,#1826,.T.);
#1835 = ORIENTED_EDGE('',*,*,#1836,.F.);
#1836 = EDGE_CURVE('',#1827,#1827,#1837,.T.);
#1837 = CIRCLE('',#1838,1.);
#1838 = AXIS2_PLACEMENT_3D('',#1839,#1840,#1841);
#1839 = CARTESIAN_POINT('',(3.5,-10.,3.5));
#1840 = DIRECTION('',(0.,1.,-2.22044604925E-16));
#1841 = DIRECTION('',(1.,0.,0.));
#1842 = CYLINDRICAL_SURFACE('',#1843,1.);
#1843 = AXIS2_PLACEMENT_3D('',#1844,#1845,#1846);
#1844 = CARTESIAN_POINT('',(3.5,7.771561172376E-16,3.5));
#1845 = DIRECTION('',(0.,-1.,2.22044604925E-16));
#1846 = DIRECTION('',(1.,0.,0.));
#1847 = ADVANCED_FACE('',(#1848),#1860,.F.);
#1848 = FACE_BOUND('',#1849,.T.);
#1849 = EDGE_LOOP('',(#1850,#1851,#1859));
#1850 = ORIENTED_EDGE('',*,*,#1761,.T.);
#1851 = ORIENTED_EDGE('',*,*,#1852,.T.);
#1852 = EDGE_CURVE('',#1752,#1853,#1855,.T.);
#1853 = VERTEX_POINT('',#1854);
#1854 = CARTESIAN_POINT('',(56.,-10.60086061902,86.));
#1855 = LINE('',#1856,#1857);
#1856 = CARTESIAN_POINT('',(57.,-10.,86.));
#1857 = VECTOR('',#1858,1.);
#1858 = DIRECTION('',(-0.857167300702,-0.51503807491,1.143614258648E-16)
  );
#1859 = ORIENTED_EDGE('',*,*,#1852,.F.);
#1860 = CONICAL_SURFACE('',#1861,1.,1.029744258677);
#1861 = AXIS2_PLACEMENT_3D('',#1862,#1863,#1864);
#1862 = CARTESIAN_POINT('',(56.,-10.,86.));
#1863 = DIRECTION('',(-0.,1.,-2.22044604925E-16));
#1864 = DIRECTION('',(1.,0.,0.));
#1865 = ADVANCED_FACE('',(#1866),#1878,.F.);
#1866 = FACE_BOUND('',#1867,.T.);
#1867 = EDGE_LOOP('',(#1868,#1869,#1877));
#1868 = ORIENTED_EDGE('',*,*,#1786,.T.);
#1869 = ORIENTED_EDGE('',*,*,#1870,.T.);
#1870 = EDGE_CURVE('',#1777,#1871,#1873,.T.);
#1871 = VERTEX_POINT('',#1872);
#1872 = CARTESIAN_POINT('',(3.5,-10.60086061902,86.));
#1873 = LINE('',#1874,#1875);
#1874 = CARTESIAN_POINT('',(4.5,-10.,86.));
#1875 = VECTOR('',#1876,1.);
#1876 = DIRECTION('',(-0.857167300702,-0.51503807491,1.143614258648E-16)
  );
#1877 = ORIENTED_EDGE('',*,*,#1870,.F.);
#1878 = CONICAL_SURFACE('',#1879,1.,1.029744258677);
#1879 = AXIS2_PLACEMENT_3D('',#1880,#1881,#1882);
#1880 = CARTESIAN_POINT('',(3.5,-10.,86.));
#1881 = DIRECTION('',(-0.,1.,-2.22044604925E-16));
#1882 = DIRECTION('',(1.,0.,0.));
#1883 = ADVANCED_FACE('',(#1884),#1896,.F.);
#1884 = FACE_BOUND('',#1885,.T.);
#1885 = EDGE_LOOP('',(#1886,#1887,#1895));
#1886 = ORIENTED_EDGE('',*,*,#1811,.T.);
#1887 = ORIENTED_EDGE('',*,*,#1888,.T.);
#1888 = EDGE_CURVE('',#1802,#1889,#1891,.T.);
#1889 = VERTEX_POINT('',#1890);
#1890 = CARTESIAN_POINT('',(56.,-10.60086061902,3.5));
#1891 = LINE('',#1892,#1893);
#1892 = CARTESIAN_POINT('',(57.,-10.,3.5));
#1893 = VECTOR('',#1894,1.);
#1894 = DIRECTION('',(-0.857167300702,-0.51503807491,1.143614258648E-16)
  );
#1895 = ORIENTED_EDGE('',*,*,#1888,.F.);
#1896 = CONICAL_SURFACE('',#1897,1.,1.029744258677);
#1897 = AXIS2_PLACEMENT_3D('',#1898,#1899,#1900);
#1898 = CARTESIAN_POINT('',(56.,-10.,3.5));
#1899 = DIRECTION('',(-0.,1.,-2.22044604925E-16));
#1900 = DIRECTION('',(1.,0.,0.));
#1901 = ADVANCED_FACE('',(#1902),#1914,.F.);
#1902 = FACE_BOUND('',#1903,.T.);
#1903 = EDGE_LOOP('',(#1904,#1905,#1913));
#1904 = ORIENTED_EDGE('',*,*,#1836,.T.);
#1905 = ORIENTED_EDGE('',*,*,#1906,.T.);
#1906 = EDGE_CURVE('',#1827,#1907,#1909,.T.);
#1907 = VERTEX_POINT('',#1908);
#1908 = CARTESIAN_POINT('',(3.5,-10.60086061902,3.5));
#1909 = LINE('',#1910,#1911);
#1910 = CARTESIAN_POINT('',(4.5,-10.,3.5));
#1911 = VECTOR('',#1912,1.);
#1912 = DIRECTION('',(-0.857167300702,-0.51503807491,1.143614258648E-16)
  );
#1913 = ORIENTED_EDGE('',*,*,#1906,.F.);
#1914 = CONICAL_SURFACE('',#1915,1.,1.029744258677);
#1915 = AXIS2_PLACEMENT_3D('',#1916,#1917,#1918);
#1916 = CARTESIAN_POINT('',(3.5,-10.,3.5));
#1917 = DIRECTION('',(-0.,1.,-2.22044604925E-16));
#1918 = DIRECTION('',(1.,0.,0.));
#1919 = ( GEOMETRIC_REPRESENTATION_CONTEXT(3) 
GLOBAL_UNCERTAINTY_ASSIGNED_CONTEXT((#1923)) 
GLOBAL_UNIT_ASSIGNED_CONTEXT((#1920,#1921,#1922)) REPRESENTATION_CONTEXT
('Context #1','3D Context with UNIT and UNCERTAINTY') );
#1920 = ( LENGTH_UNIT() NAMED_UNIT(*) SI_UNIT(.MILLI.,.METRE.) );
#1921 = ( NAMED_UNIT(*) PLANE_ANGLE_UNIT() SI_UNIT($,.RADIAN.) );
#1922 = ( NAMED_UNIT(*) SI_UNIT($,.STERADIAN.) SOLID_ANGLE_UNIT() );
#1923 = UNCERTAINTY_MEASURE_WITH_UNIT(LENGTH_MEASURE(1.E-05),#1920,
  'distance_accuracy_value','confusion accuracy');
#1924 = CONTEXT_DEPENDENT_SHAPE_REPRESENTATION(#1925,#1927);
#1925 = ( REPRESENTATION_RELATIONSHIP('','',#503,#10) 
REPRESENTATION_RELATIONSHIP_WITH_TRANSFORMATION(#1926) 
SHAPE_REPRESENTATION_RELATIONSHIP() );
#1926 = ITEM_DEFINED_TRANSFORMATION('','',#11,#19);
#1927 = PRODUCT_DEFINITION_SHAPE('Placement','Placement of an item',
  #1928);
#1928 = NEXT_ASSEMBLY_USAGE_OCCURRENCE('8','Body','',#5,#498,$);
#1929 = PRODUCT_RELATED_PRODUCT_CATEGORY('part',$,(#500));
#1930 = MECHANICAL_DESIGN_GEOMETRIC_PRESENTATION_REPRESENTATION('',(
    #1931),#485);
#1931 = STYLED_ITEM('color',(#1932),#37);
#1932 = PRESENTATION_STYLE_ASSIGNMENT((#1933,#1939));
#1933 = SURFACE_STYLE_USAGE(.BOTH.,#1934);
#1934 = SURFACE_SIDE_STYLE('',(#1935));
#1935 = SURFACE_STYLE_FILL_AREA(#1936);
#1936 = FILL_AREA_STYLE('',(#1937));
#1937 = FILL_AREA_STYLE_COLOUR('',#1938);
#1938 = COLOUR_RGB('',0.447058818107,0.474509808674,0.501960817233);
#1939 = CURVE_STYLE('',#1940,POSITIVE_LENGTH_MEASURE(0.1),#1941);
#1940 = DRAUGHTING_PRE_DEFINED_CURVE_FONT('continuous');
#1941 = COLOUR_RGB('',9.803921802644E-02,9.803921802644E-02,
  9.803921802644E-02);
#1942 = MECHANICAL_DESIGN_GEOMETRIC_PRESENTATION_REPRESENTATION('',(
    #1943),#1919);
#1943 = STYLED_ITEM('color',(#1944),#504);
#1944 = PRESENTATION_STYLE_ASSIGNMENT((#1945,#1950));
#1945 = SURFACE_STYLE_USAGE(.BOTH.,#1946);
#1946 = SURFACE_SIDE_STYLE('',(#1947));
#1947 = SURFACE_STYLE_FILL_AREA(#1948);
#1948 = FILL_AREA_STYLE('',(#1949));
#1949 = FILL_AREA_STYLE_COLOUR('',#1938);
#1950 = CURVE_STYLE('',#1951,POSITIVE_LENGTH_MEASURE(0.1),#1941);
#1951 = DRAUGHTING_PRE_DEFINED_CURVE_FONT('continuous');
ENDSEC;
END-ISO-10303-21;
